# Blender v2.92.0 OBJ File: 'untitled.blend'
# www.blender.org
mtllib leftleg.mtl
v -0.101661 0.426380 -0.174082
v -0.113969 0.443778 -0.183256
v -0.096789 0.427075 -0.156343
v -0.125845 0.425611 -0.174141
v -0.104486 0.390163 -0.171026
v -0.117902 0.389395 -0.171041
v -0.104497 0.328296 -0.176018
v -0.104486 0.389276 -0.163467
v -0.104497 0.327843 -0.167156
v -0.117388 0.389534 -0.163490
v -0.124564 0.422459 -0.156372
v -0.128409 0.445412 -0.169512
v -0.116790 0.446693 -0.169510
v -0.104503 0.266577 -0.170262
v -0.104507 0.223863 -0.175139
v -0.104503 0.266257 -0.178238
v -0.115354 0.266157 -0.178238
v -0.104508 0.222378 -0.183485
v -0.114332 0.222988 -0.183484
v -0.100674 0.110698 -0.189322
v -0.100674 0.113039 -0.177138
v -0.097085 0.098714 -0.190629
v -0.104345 0.110698 -0.189322
v -0.105627 0.098966 -0.190677
v -0.107423 0.089209 -0.188803
v -0.107423 0.089894 -0.175848
v -0.098624 0.085180 -0.188028
v -0.117167 0.064170 -0.174515
v -0.110164 0.064169 -0.174515
v -0.117167 0.065357 -0.170682
v -0.110164 0.065357 -0.170682
v -0.098624 0.085864 -0.175075
v -0.097085 0.097908 -0.176035
v -0.116629 0.328770 -0.176018
v -0.128409 0.443778 -0.183284
vt 0.787200 0.133700
vt 0.777600 0.143900
vt 0.796600 0.142800
vt 0.792100 0.132300
vt 0.783500 0.119100
vt 0.759000 0.142300
vt 0.774300 0.182200
vt 0.782400 0.180400
vt 0.797600 0.180200
vt 0.785400 0.246900
vt 0.797600 0.246100
vt 0.776100 0.247100
vt 0.820700 0.181900
vt 0.837200 0.142000
vt 0.810500 0.145600
vt 0.806600 0.179400
vt 0.812000 0.118500
vt 0.799700 0.123100
vt 0.786800 0.310900
vt 0.778400 0.310200
vt 0.789000 0.357000
vt 0.780100 0.355100
vt 0.798500 0.355600
vt 0.798300 0.310700
vt 0.793500 0.431500
vt 0.798800 0.431300
vt 0.782300 0.428800
vt 0.792300 0.444800
vt 0.778200 0.446300
vt 0.799400 0.444700
vt 0.792200 0.455300
vt 0.800000 0.453200
vt 0.801800 0.474100
vt 0.803700 0.477000
vt 0.812600 0.455400
vt 0.797500 0.473700
vt 0.796200 0.477700
vt 0.809600 0.477300
vt 0.821200 0.459000
vt 0.781000 0.460400
vn 0.4871 -0.0353 -0.8726
vn 0.7292 0.1108 -0.6752
vn 0.0086 -0.2917 -0.9565
vn 0.0110 -0.4542 -0.8908
vn 0.4008 0.7189 0.5679
vn 0.7353 0.2552 0.6278
vn 0.9072 -0.1547 0.3913
vn 0.6772 -0.0514 -0.7340
vn 0.0026 -0.0046 -1.0000
vn 0.7021 0.0411 -0.7109
vn 0.0001 0.0592 -0.9982
vn 1.0000 -0.0001 -0.0000
vn -0.0300 0.1643 0.9860
vn 0.0199 -0.1975 0.9801
vn -0.0746 0.4937 0.8665
vn 0.7172 0.0539 -0.6948
vn 0.6946 0.0744 -0.7156
vn 0.9999 0.0147 -0.0028
vn 0.0026 0.0886 -0.9961
vn 0.0017 0.0774 -0.9970
vn 0.6661 0.1720 -0.7258
vn 0.0043 0.0824 -0.9966
vn 0.9908 0.1352 -0.0102
vn 0.7150 0.0230 -0.6987
vn 0.9985 0.0538 -0.0071
vn 0.0029 -0.0495 -0.9988
vn 0.6418 -0.4315 -0.6340
vn -0.3458 -0.1961 -0.9176
vn -0.7338 -0.6162 -0.2860
vn -0.6700 -0.2907 0.6830
vn -0.6897 0.3945 0.6072
vn 0.3774 -0.8726 -0.3101
vn 0.4190 -0.5283 0.7385
vn 0.8733 -0.1935 0.4471
usemtl Skeleton
s 1
f 2/1/1 1/2/2 4/3/3 35/4/4
f 1/2/2 2/1/1 13/5/5 3/6/6
f 1/2/2 3/6/6 8/7/7 5/8/8
f 1/2/2 5/8/8 6/9/9 4/3/3
f 5/8/8 7/10/10 34/11/11 6/9/9
f 7/10/10 5/8/8 8/7/7 9/12/12
f 8/13/7 3/14/6 11/15/13 10/16/14
f 3/14/6 13/17/5 12/18/15 11/15/13
f 16/19/16 7/10/10 9/12/12 14/20/12
f 18/21/17 16/19/16 14/20/12 15/22/18
f 16/19/16 18/21/17 19/23/19 17/24/20
f 7/10/10 16/19/16 17/24/20 34/11/11
f 18/21/17 20/25/21 23/26/22 19/23/19
f 20/25/21 18/21/17 15/22/18 21/27/23
f 22/28/24 20/25/21 21/27/23 33/29/25
f 20/25/21 22/28/24 24/30/26 23/26/22
f 22/28/24 27/31/27 25/32/28 24/30/26
f 28/33/29 30/34/30 26/35/31 25/32/28
f 27/31/27 29/36/32 28/33/29 25/32/28
f 29/36/32 31/37/33 30/34/30 28/33/29
f 31/38/33 32/39/34 26/35/31 30/34/30
f 29/36/32 27/31/27 32/40/34 31/37/33
f 27/31/27 22/28/24 33/29/25 32/40/34
v -0.089817 0.466278 -0.138934
v -0.127574 0.451920 -0.157728
v -0.089817 0.464683 -0.119594
v -0.058975 0.456175 -0.157757
v -0.127574 0.442348 -0.157602
v -0.063230 0.423204 -0.151975
v -0.058975 0.456174 -0.108348
v -0.063229 0.424267 -0.115061
v -0.072805 0.387575 -0.115813
v -0.074412 0.323288 -0.126794
v -0.072805 0.387576 -0.149427
v -0.092481 0.388640 -0.149404
v -0.074412 0.323651 -0.156041
v -0.093556 0.323819 -0.156041
v -0.073359 0.224868 -0.163493
v -0.091971 0.225487 -0.163493
v -0.073359 0.225174 -0.138499
v -0.064863 0.116625 -0.170413
v -0.061142 0.101735 -0.173605
v -0.064863 0.116092 -0.145420
v -0.097834 0.113968 -0.170413
v -0.099430 0.101427 -0.173604
v -0.099517 0.074529 -0.167755
v -0.099517 0.075061 -0.144889
v -0.060079 0.073018 -0.167756
v -0.060079 0.073550 -0.144889
v -0.061142 0.100670 -0.144357
v -0.106304 0.420014 -0.149245
v -0.127574 0.451920 -0.108360
vt 0.906500 0.124200
vt 0.873300 0.123000
vt 0.874400 0.134900
vt 0.887300 0.139900
vt 0.867400 0.146100
vt 0.888300 0.143400
vt 0.845600 0.125500
vt 0.865800 0.160200
vt 0.891200 0.160200
vt 0.837500 0.156300
vt 0.839800 0.189300
vt 0.870700 0.188800
vt 0.848000 0.247300
vt 0.873700 0.248300
vt 0.889000 0.188200
vt 0.890500 0.247800
vt 0.875200 0.336800
vt 0.891500 0.335900
vt 0.852600 0.334400
vt 0.870400 0.430300
vt 0.894900 0.430900
vt 0.846200 0.435300
vt 0.848300 0.453000
vt 0.873500 0.442000
vt 0.894000 0.439200
vt 0.893900 0.452900
vt 0.877400 0.456300
vt 0.872200 0.475400
vt 0.905900 0.463800
vn -0.3399 0.9402 0.0218
vn -0.0205 0.9995 0.0232
vn -0.0281 0.9640 -0.2644
vn -0.1691 0.8415 -0.5130
vn 0.6451 0.3777 -0.6642
vn -0.0204 0.3020 -0.9531
vn 0.8632 0.5047 0.0149
vn 0.7075 -0.2464 -0.6624
vn -0.0074 -0.1714 -0.9852
vn 0.9822 -0.1880 0.0026
vn 0.9889 -0.1488 0.0020
vn 0.6859 -0.0788 -0.7234
vn 1.0000 -0.0086 -0.0001
vn 0.7008 0.0590 -0.7109
vn -0.0232 0.0221 -0.9995
vn 0.0021 0.0890 -0.9960
vn 0.6960 0.0814 -0.7134
vn -0.0004 0.0692 -0.9976
vn 0.9991 0.0422 0.0002
vn 0.6860 0.2196 -0.6936
vn -0.0063 0.1534 -0.9881
vn 0.9872 0.1596 0.0037
vn 0.9909 0.1348 0.0036
vn 0.6805 0.0909 -0.7271
vn -0.0063 -0.0001 -1.0000
vn -0.0267 -0.7779 -0.6279
vn 0.5895 -0.6342 -0.5003
vn 0.7170 -0.6968 0.0172
vn -0.0383 -0.9990 0.0232
usemtl Skeleton
s 1
f 64/41/35 38/42/36 36/43/37 37/44/38
f 36/43/37 39/45/39 40/46/40 37/44/38
f 38/42/36 42/47/41 39/45/39 36/43/37
f 40/46/40 39/45/39 41/48/42 63/49/43
f 42/47/41 43/50/44 41/48/42 39/45/39
f 43/50/44 44/51/45 46/52/46 41/48/42
f 44/51/45 45/53/47 48/54/48 46/52/46
f 63/49/43 41/48/42 46/52/46 47/55/49
f 47/55/49 46/52/46 48/54/48 49/56/50
f 49/56/50 48/54/48 50/57/51 51/58/52
f 45/53/47 52/59/53 50/57/51 48/54/48
f 51/58/52 50/57/51 53/60/54 56/61/55
f 52/59/53 55/62/56 53/60/54 50/57/51
f 55/62/56 62/63/57 54/64/58 53/60/54
f 53/60/54 54/64/58 57/65/59 56/61/55
f 58/66/60 57/65/59 54/64/58 60/67/61
f 61/68/62 59/69/63 58/66/60 60/67/61
f 62/63/57 61/68/62 60/67/61 54/64/58
v -0.113969 0.443778 -0.183256
v -0.116790 0.446693 -0.169510
v -0.128409 0.443778 -0.183284
v -0.128409 0.445412 -0.169512
v -0.125845 0.425611 -0.174141
v -0.117902 0.389395 -0.171041
v -0.124564 0.422459 -0.156372
v -0.117388 0.389534 -0.163490
v -0.104486 0.389276 -0.163467
v -0.116629 0.328341 -0.167156
v -0.116629 0.328770 -0.176018
v -0.104497 0.327843 -0.167156
v -0.115353 0.266468 -0.170262
v -0.115354 0.266157 -0.178238
v -0.114332 0.224477 -0.175139
v -0.104503 0.266577 -0.170262
v -0.104507 0.223863 -0.175139
v -0.100674 0.113039 -0.177138
v -0.104345 0.113040 -0.177138
v -0.097085 0.097908 -0.176035
v -0.098624 0.085864 -0.175075
v -0.105627 0.098162 -0.176084
v -0.105627 0.098966 -0.190677
v -0.107423 0.089894 -0.175848
v -0.107423 0.089209 -0.188803
v -0.104345 0.110698 -0.189322
v -0.114332 0.222988 -0.183484
vt 0.783500 0.119100
vt 0.787200 0.133700
vt 0.792100 0.132300
vt 0.799700 0.123100
vt 0.796600 0.142800
vt 0.810500 0.145600
vt 0.797600 0.180200
vt 0.806600 0.179400
vt 0.797600 0.246100
vt 0.806600 0.246000
vt 0.819300 0.246800
vt 0.820700 0.181900
vt 0.798300 0.310700
vt 0.806600 0.309700
vt 0.817800 0.309900
vt 0.798500 0.355600
vt 0.806900 0.353300
vt 0.816400 0.354400
vt 0.816300 0.427400
vt 0.810900 0.427900
vt 0.823000 0.445700
vt 0.813600 0.446400
vt 0.821200 0.459000
vt 0.812600 0.455400
vt 0.799400 0.444700
vt 0.798800 0.431300
vt 0.800000 0.453200
vn -0.0482 0.9847 -0.1677
vn -0.6784 0.7253 -0.1168
vn -0.8402 0.5359 -0.0827
vn -0.9855 -0.1657 0.0373
vn -0.9815 -0.1872 0.0400
vn -0.9924 -0.1174 0.0374
vn -0.8813 -0.1376 0.4521
vn -0.9997 -0.0197 0.0153
vn -0.7037 -0.0525 0.7086
vn -0.0018 -0.0550 0.9985
vn -0.0027 -0.0599 0.9982
vn -0.9997 -0.0225 0.0014
vn -0.6996 -0.0741 0.7106
vn -0.0018 -0.0822 0.9966
vn -0.9980 -0.0625 0.0109
vn -0.7206 -0.0854 0.6880
vn -0.0018 -0.0639 0.9980
vn -0.0017 0.0303 0.9995
vn -0.6948 0.0148 0.7191
vn -0.0179 0.0675 0.9976
vn -0.6840 0.1497 0.7140
vn -0.0315 0.0639 0.9975
vn -0.6619 0.1741 0.7291
vn -0.9898 0.1428 -0.0025
vn -0.9998 0.0191 0.0037
vn -0.9807 0.1955 0.0008
usemtl Skeleton
s 1
f 66/70/64 65/71/64 67/72/65 68/73/66
f 68/73/66 67/72/65 69/74/67 71/75/68
f 69/74/67 70/76/69 72/77/70 71/75/68
f 75/78/71 74/79/72 72/77/70 70/76/69
f 76/80/73 73/81/74 72/77/70 74/79/72
f 78/82/75 77/83/76 74/79/72 75/78/71
f 80/84/77 76/80/73 74/79/72 77/83/76
f 91/85/78 79/86/79 77/83/76 78/82/75
f 81/87/80 80/84/77 77/83/76 79/86/79
f 82/88/81 81/87/80 79/86/79 83/89/82
f 84/90/83 82/88/81 83/89/82 86/91/84
f 85/92/85 84/90/83 86/91/84 88/93/86
f 87/94/87 86/91/84 83/89/82 90/95/88
f 89/96/89 88/93/86 86/91/84 87/94/87
f 90/95/88 83/89/82 79/86/79 91/85/78
v -0.127574 0.442348 -0.157602
v -0.127574 0.442348 -0.108282
v -0.127574 0.451920 -0.157728
v -0.106304 0.420014 -0.149245
v -0.106304 0.420014 -0.116095
v -0.092481 0.388640 -0.149404
v -0.092480 0.388639 -0.115803
v -0.093556 0.323819 -0.156041
v -0.091971 0.225487 -0.163493
v -0.093556 0.323555 -0.126793
v -0.091971 0.225800 -0.138499
v -0.074412 0.323288 -0.126794
v -0.072805 0.387575 -0.115813
v -0.073359 0.225174 -0.138499
v -0.064863 0.116092 -0.145420
v -0.097833 0.113435 -0.145420
v -0.061142 0.100670 -0.144357
v -0.060079 0.073550 -0.144889
v -0.099430 0.100364 -0.144357
v -0.099430 0.101427 -0.173604
v -0.099517 0.075061 -0.144889
v -0.099517 0.074529 -0.167755
v -0.097834 0.113968 -0.170413
v -0.063229 0.424267 -0.115061
v -0.058975 0.456174 -0.108348
v -0.089817 0.464683 -0.119594
v -0.127574 0.451920 -0.108360
vt 0.908400 0.130700
vt 0.906500 0.124200
vt 0.887300 0.139900
vt 0.888300 0.143400
vt 0.915300 0.152800
vt 0.891200 0.160200
vt 0.920300 0.184000
vt 0.889000 0.188200
vt 0.915900 0.245300
vt 0.890500 0.247800
vt 0.913800 0.333900
vt 0.891500 0.335900
vt 0.930700 0.334300
vt 0.933000 0.246400
vt 0.938400 0.187300
vt 0.914500 0.432900
vt 0.943100 0.432600
vt 0.913400 0.443000
vt 0.944900 0.447200
vt 0.905900 0.463800
vt 0.941300 0.471900
vt 0.894900 0.430900
vt 0.894000 0.439200
vt 0.893900 0.452900
vt 0.952900 0.156700
vt 0.962600 0.130500
vt 0.937300 0.114300
vn -0.7483 -0.1457 0.6472
vn -0.6555 0.3720 0.6572
vn -1.0000 0.0000 0.0000
vn -0.9421 -0.3354 0.0000
vn -0.5444 -0.4917 0.6796
vn -0.8246 -0.5657 0.0000
vn -0.6177 -0.1889 0.7634
vn -0.9816 -0.1908 0.0000
vn -0.7176 -0.0987 0.6894
vn -1.0000 -0.0006 0.0000
vn -0.7064 -0.0532 0.7059
vn -0.9998 0.0198 0.0001
vn -0.0000 -0.0892 0.9960
vn -0.0041 -0.1430 0.9897
vn -0.0110 -0.0837 0.9964
vn -0.7119 0.0723 0.6986
vn -0.0004 0.0091 1.0000
vn -0.7069 0.0605 0.7047
vn -0.0016 0.0228 0.9997
vn -0.7093 -0.0119 0.7048
vn -0.0003 -0.0203 0.9998
vn -0.9959 0.0908 0.0021
vn -0.9979 0.0644 0.0019
vn -1.0000 0.0033 0.0000
vn 0.0127 -0.1530 0.9881
vn 0.0131 -0.0175 0.9998
vn -0.0307 0.4924 0.8698
usemtl Skeleton
s 1
f 93/97/90 118/98/91 94/99/92 92/100/93
f 96/101/94 93/97/90 92/100/93 95/102/95
f 98/103/96 96/101/94 95/102/95 97/104/97
f 101/105/98 98/103/96 97/104/97 99/106/99
f 102/107/100 101/105/98 99/106/99 100/108/101
f 101/105/98 102/107/100 105/109/102 103/110/103
f 98/103/96 101/105/98 103/110/103 104/111/104
f 102/107/100 107/112/105 106/113/106 105/109/102
f 106/113/106 107/112/105 110/114/107 108/115/108
f 112/116/109 109/117/110 108/115/108 110/114/107
f 110/114/107 107/112/105 114/118/111 111/119/112
f 112/116/109 110/114/107 111/119/112 113/120/113
f 107/112/105 102/107/100 100/108/101 114/118/111
f 96/101/94 98/103/96 104/111/104 115/121/114
f 93/97/90 96/101/94 115/121/114 116/122/115
f 117/123/116 118/98/91 93/97/90 116/122/115
