# Blender v2.92.0 OBJ File: 'untitled.blend'
# www.blender.org
mtllib leftarm.mtl
v 0.171758 1.453260 -0.156312
v 0.171473 1.456160 -0.150235
v 0.164442 1.463781 -0.143536
v 0.169198 1.465623 -0.133639
v 0.171133 1.460919 -0.143853
v 0.184871 1.439889 -0.121804
v 0.183406 1.444850 -0.119587
v 0.180853 1.438792 -0.115422
v 0.181097 1.444432 -0.116052
v 0.169302 1.444023 -0.175588
v 0.184083 1.466488 -0.158760
v 0.171459 1.451882 -0.171568
v 0.207427 1.470339 -0.146375
v 0.200758 1.470301 -0.160678
v 0.199591 1.473534 -0.160131
v 0.202591 1.467440 -0.140089
v 0.205884 1.468839 -0.143540
v 0.202438 1.472120 -0.138975
v 0.199002 1.472379 -0.136262
v 0.409924 1.446375 -0.151998
v 0.406330 1.448384 -0.153367
v 0.406036 1.448194 -0.130966
v 0.410022 1.446209 -0.132922
v 0.399143 1.452396 -0.156391
v 0.399925 1.452177 -0.128520
v 0.387641 1.448832 -0.154171
v 0.388123 1.448765 -0.141988
v 0.372920 1.440015 -0.155701
v 0.372521 1.439934 -0.140967
v 0.346246 1.439834 -0.154385
v 0.346246 1.439899 -0.136565
v 0.295336 1.444937 -0.146351
v 0.295336 1.444379 -0.128385
v 0.240218 1.446457 -0.142643
v 0.240218 1.444409 -0.120118
v 0.219152 1.455579 -0.142692
v 0.220613 1.453920 -0.116438
v 0.208703 1.459859 -0.150278
v 0.207729 1.458223 -0.111735
v 0.195795 1.464174 -0.110436
v 0.188513 1.457093 -0.150740
v 0.188513 1.455977 -0.117996
v 0.182447 1.445411 -0.141781
v 0.188678 1.409229 -0.117862
v 0.181892 1.417773 -0.122833
v 0.201040 1.401219 -0.110329
v 0.208263 1.407466 -0.111611
v 0.219933 1.413080 -0.116322
v 0.238969 1.415448 -0.120037
v 0.293233 1.415365 -0.128313
v 0.344143 1.417789 -0.136521
v 0.370839 1.409924 -0.140948
v 0.386021 1.393679 -0.141976
v 0.396566 1.381862 -0.132625
v 0.404009 1.385252 -0.130477
v 0.408050 1.398423 -0.132140
v 0.166725 1.462392 -0.092835
v 0.162507 1.468943 -0.093821
v 0.175119 1.469539 -0.112075
v 0.168359 1.472601 -0.121379
v 0.175080 1.461720 -0.109982
v 0.198114 1.468360 -0.132990
v 0.166461 1.446713 -0.165162
v 0.163612 1.464931 -0.129387
v 0.167735 1.447734 -0.126975
v 0.165774 1.443222 -0.135484
v 0.168582 1.458174 -0.178922
v 0.166820 1.461130 -0.181939
v 0.169721 1.455058 -0.177112
v 0.168912 1.447964 -0.192721
v 0.186890 1.467652 -0.162021
v 0.189357 1.470150 -0.170093
v 0.188323 1.469039 -0.173599
v 0.188435 1.468450 -0.164622
v 0.188688 1.469871 -0.167756
v 0.199161 1.474959 -0.156318
v 0.199242 1.474983 -0.158883
v 0.197644 1.474032 -0.151502
v 0.193454 1.473547 -0.146062
v 0.201583 1.466761 -0.159935
v 0.189068 1.472279 -0.142205
v 0.189880 1.467411 -0.145291
v 0.196932 1.468868 -0.136606
v 0.192595 1.472501 -0.134935
v 0.206147 1.473825 -0.145131
v 0.204441 1.472853 -0.141464
v 0.448444 1.426012 -0.142386
v 0.447088 1.442069 -0.142386
v 0.444325 1.425989 -0.140326
v 0.443346 1.444317 -0.140326
v 0.434864 1.426868 -0.137238
v 0.435242 1.449800 -0.137238
v 0.431643 1.443096 -0.153969
v 0.441682 1.445007 -0.153711
v 0.448186 1.426061 -0.153711
v 0.446830 1.442500 -0.153711
v 0.422992 1.408016 -0.175426
v 0.429992 1.408039 -0.177525
v 0.430069 1.429800 -0.177415
v 0.441917 1.435518 -0.176622
v 0.429654 1.430880 -0.153376
v 0.442696 1.435203 -0.148152
v 0.436547 1.414745 -0.145948
v 0.431765 1.428388 -0.148343
v 0.422484 1.429888 -0.155597
v 0.417678 1.440892 -0.135039
v 0.417601 1.441020 -0.149859
v 0.416145 1.403766 -0.134431
v 0.427088 1.438385 -0.136037
v 0.427021 1.438496 -0.148851
v 0.425762 1.406285 -0.135511
v 0.387072 1.421222 -0.141982
v 0.398246 1.417019 -0.130572
v 0.371680 1.424929 -0.140957
v 0.345195 1.428844 -0.136543
v 0.294284 1.429872 -0.128349
v 0.239594 1.429929 -0.120077
v 0.220273 1.433500 -0.116380
v 0.207996 1.432845 -0.111673
v 0.198417 1.432697 -0.110382
v 0.405023 1.416723 -0.130721
v 0.409036 1.422316 -0.132531
v 0.188595 1.432603 -0.117929
v 0.409133 1.422432 -0.152292
v 0.188560 1.434790 -0.150658
v 0.416912 1.422329 -0.134735
v 0.416987 1.422419 -0.150087
v 0.426425 1.422335 -0.135774
v 0.426490 1.422413 -0.149048
vt 0.308500 0.686500
vt 0.313100 0.685900
vt 0.310500 0.689800
vt 0.139000 0.598000
vt 0.147400 0.601800
vt 0.148000 0.599600
vt 0.133600 0.591600
vt 0.138200 0.591700
vt 0.139100 0.589300
vt 0.157800 0.227700
vt 0.159500 0.234200
vt 0.167300 0.232100
vt 0.168500 0.222800
vt 0.159700 0.246800
vt 0.172300 0.244500
vt 0.166100 0.269100
vt 0.180200 0.265500
vt 0.185900 0.307500
vt 0.198900 0.302000
vt 0.210400 0.353200
vt 0.228100 0.339100
vt 0.226000 0.371400
vt 0.242300 0.353000
vt 0.231000 0.382300
vt 0.252200 0.358200
vt 0.294500 0.384300
vt 0.300800 0.383300
vt 0.303100 0.364800
vt 0.294400 0.362800
vt 0.319400 0.685800
vt 0.319500 0.685700
vt 0.319600 0.685800
vt 0.319500 0.685800
vt 0.172500 0.590300
vt 0.156200 0.590900
vt 0.156200 0.594100
vt 0.174600 0.594500
vt 0.156400 0.596500
vt 0.175300 0.597200
vt 0.157100 0.598900
vt 0.176800 0.600400
vt 0.146500 0.597000
vt 0.147600 0.598300
vt 0.157500 0.600800
vt 0.145200 0.594600
vt 0.144500 0.591000
vt 0.144200 0.587700
vt 0.146600 0.585200
vt 0.138200 0.585400
vt 0.141500 0.588000
vt 0.139800 0.595800
vt 0.146200 0.603900
vt 0.138500 0.593700
vt 0.135400 0.597200
vt 0.317800 0.047000
vt 0.318900 0.050000
vt 0.306900 0.048700
vt 0.307600 0.045400
vt 0.357500 0.329200
vt 0.350900 0.315100
vt 0.337200 0.320500
vt 0.353600 0.334400
vt 0.160000 0.603000
vt 0.185300 0.231800
vt 0.187200 0.221600
vt 0.106600 0.265200
vt 0.114700 0.246700
vt 0.107700 0.238400
vt 0.096600 0.257700
vt 0.184200 0.242600
vt 0.115100 0.273000
vt 0.123100 0.263100
vt 0.188200 0.262600
vt 0.127000 0.290300
vt 0.135400 0.285800
vt 0.208400 0.296200
vt 0.141800 0.328100
vt 0.152700 0.325500
vt 0.236000 0.329300
vt 0.151000 0.369000
vt 0.162600 0.370200
vt 0.247400 0.338000
vt 0.145300 0.381400
vt 0.161600 0.388600
vt 0.256600 0.340000
vt 0.141500 0.389700
vt 0.158700 0.400500
vt 0.260300 0.364600
vt 0.263600 0.341600
vt 0.137500 0.395800
vt 0.158700 0.408300
vt 0.103300 0.236200
vt 0.092500 0.255400
vt 0.186900 0.217600
vt 0.168200 0.219200
vt 0.134800 0.204400
vt 0.112900 0.209900
vt 0.123300 0.210100
vt 0.138200 0.206600
vt 0.236600 0.422300
vt 0.222400 0.427400
vt 0.224100 0.436200
vt 0.245400 0.426400
vt 0.208200 0.428400
vt 0.201100 0.437200
vt 0.151300 0.208700
vt 0.138500 0.210400
vt 0.146600 0.211800
vt 0.130000 0.213000
vt 0.140600 0.225500
vt 0.152800 0.221100
vt 0.147500 0.218900
vt 0.140100 0.222000
vt 0.138900 0.214200
vt 0.143200 0.214300
vt 0.134200 0.215100
vt 0.144000 0.217200
vt 0.139600 0.218300
vn 0.3573 0.8722 -0.3340
vn 0.9521 0.3057 0.0016
vn 0.8749 0.2599 -0.4086
vn 0.5872 0.6626 -0.4649
vn 0.6432 -0.1564 0.7496
vn 0.5369 0.5494 0.6402
vn 0.3270 0.5332 0.7803
vn -0.2939 0.9557 0.0161
vn -0.4003 0.9163 0.0113
vn -0.5347 0.7210 0.4407
vn -0.4310 0.2920 0.8538
vn -0.2637 0.9646 0.0035
vn -0.0769 0.6376 0.7665
vn 0.0426 0.9991 0.0066
vn 0.1510 0.6856 0.7121
vn 0.0610 0.9974 0.0373
vn 0.1436 0.6941 0.7054
vn 0.2236 0.9727 0.0616
vn 0.2735 0.5967 0.7544
vn 0.3723 0.9268 0.0497
vn 0.4395 0.6386 0.6317
vn 0.3400 0.9394 0.0452
vn 0.3043 0.3223 0.8964
vn 0.8100 0.3382 0.4790
vn 0.8418 0.0162 0.5395
vn -0.7595 0.6153 0.2111
vn -0.6152 0.7883 0.0123
vn -0.6001 0.7954 0.0843
vn -0.7281 0.5905 0.3483
vn -0.6113 0.7531 0.2432
vn -0.6577 0.5604 0.5035
vn -0.5628 0.7924 0.2354
vn -0.6267 0.5540 0.5480
vn -0.2895 0.9498 0.1183
vn 0.1748 0.9513 -0.2538
vn 0.0171 0.9265 -0.3759
vn -0.2417 0.9681 0.0654
vn -0.1976 0.9801 -0.0197
vn -0.7154 0.6076 0.3451
vn -0.6116 -0.6347 0.4723
vn 0.0005 -0.4708 0.8822
vn -0.4781 0.3186 0.8185
vn 0.6422 0.7518 0.1497
vn 0.8995 0.1215 -0.4197
vn 0.5341 0.6524 0.5377
vn 0.8321 0.0183 0.5543
vn 0.4711 0.0320 0.8815
vn -0.3718 0.9282 -0.0109
vn 0.1919 0.8523 -0.4866
vn -0.3574 0.0032 0.9340
vn -0.3746 -0.0109 0.9271
vn -0.5255 0.0043 0.8508
vn -0.4111 -0.0090 0.9115
vn 0.1145 -0.0066 0.9934
vn 0.1007 -0.0055 0.9949
vn 0.1608 -0.0107 0.9869
vn 0.1605 -0.0107 0.9870
vn 0.1541 -0.0084 0.9880
vn 0.1544 -0.0083 0.9880
vn 0.1687 -0.0042 0.9857
vn 0.1712 -0.0042 0.9852
vn 0.2736 -0.0003 0.9618
vn 0.2935 0.0000 0.9560
vn 0.2482 0.0054 0.9687
vn 0.2228 0.0070 0.9748
vn -0.2780 -0.0116 0.9605
vn -0.2576 -0.0106 0.9662
vn -0.2355 -0.0095 0.9718
vn -0.0683 -0.0196 0.9975
vn 0.1982 -0.0177 0.9800
vn 0.1864 -0.0342 0.9819
vn 0.3709 -0.0019 0.9287
vn 0.2921 0.0032 0.9564
vn -0.6533 -0.0305 0.7565
vn -0.6117 -0.0284 0.7906
vn -0.5684 -0.0262 0.8224
vn 0.2695 0.0046 0.9630
vn 0.1897 0.0082 0.9818
vn 0.2074 0.0075 0.9782
vn 0.2108 0.0073 0.9775
vn 0.2703 0.0029 -0.9628
vn 0.2084 0.0051 -0.9780
vn 0.1919 0.0057 -0.9814
vn 0.5175 -0.0056 0.8557
vn 0.7096 -0.0151 0.7045
vn 0.1085 0.0118 0.9940
vn 0.7034 -0.0171 -0.7106
vn 0.7365 -0.0188 -0.6761
usemtl Skeleton
s 1
f 3/1/1 4/2/1 5/3/1
f 13/4/2 14/5/3 15/6/4
f 16/7/5 18/8/6 19/9/7
f 24/10/8 26/11/9 27/12/10 25/13/11
f 26/11/9 28/14/12 29/15/13 27/12/10
f 28/14/12 30/16/14 31/17/15 29/15/13
f 30/16/14 32/18/16 33/19/17 31/17/15
f 32/18/16 34/20/18 35/21/19 33/19/17
f 34/20/18 36/22/20 37/23/21 35/21/19
f 36/22/20 38/24/22 39/25/23 37/23/21
f 58/26/24 57/27/24 61/28/24 59/29/24
f 7/30/25 9/31/25 8/32/25 6/33/25
f 12/34/26 11/35/27 71/36/28 69/37/29
f 69/37/29 71/36/28 74/38/30 67/39/31
f 67/39/31 74/38/30 75/40/32 68/41/33
f 75/40/32 76/42/34 77/43/35 72/44/36
f 74/38/30 78/45/37 76/42/34 75/40/32
f 71/36/28 79/46/38 78/45/37 74/38/30
f 11/35/27 81/47/39 79/46/38 71/36/28
f 82/48/40 83/49/41 84/50/42 81/47/39
f 81/47/39 84/50/42 19/9/7 79/46/38
f 77/43/35 85/51/43 13/4/2 15/6/4
f 13/4/2 80/52/44 14/5/3
f 79/46/38 19/9/7 18/8/6 78/45/37
f 78/45/37 18/8/6 86/53/45 76/42/34
f 76/42/34 86/53/45 85/51/43 77/43/35
f 85/51/43 86/53/45 17/54/46 13/4/2
f 86/53/45 18/8/6 16/7/5 17/54/46
f 89/55/47 87/56/47 88/57/47 90/58/47
f 99/59/48 101/60/48 102/61/48 100/62/48
f 72/44/36 77/43/35 15/6/4 73/63/49
f 19/9/7 84/50/42 83/49/41 16/7/5
f 27/12/10 112/64/50 113/65/51 25/13/11
f 112/66/50 53/67/52 54/68/53 113/69/51
f 29/15/13 114/70/54 112/64/50 27/12/10
f 114/71/54 52/72/55 53/67/52 112/66/50
f 31/17/15 115/73/56 114/70/54 29/15/13
f 115/74/56 51/75/57 52/72/55 114/71/54
f 33/19/17 116/76/58 115/73/56 31/17/15
f 116/77/58 50/78/59 51/75/57 115/74/56
f 35/21/19 117/79/60 116/76/58 33/19/17
f 117/80/60 49/81/61 50/78/59 116/77/58
f 37/23/21 118/82/62 117/79/60 35/21/19
f 118/83/62 48/84/63 49/81/61 117/80/60
f 39/25/23 119/85/64 118/82/62 37/23/21
f 119/86/64 47/87/65 48/84/63 118/83/62
f 40/88/66 120/89/67 119/85/64 39/25/23
f 120/90/67 46/91/68 47/87/65 119/86/64
f 55/92/69 121/93/70 113/69/51 54/68/53
f 121/94/70 22/95/71 25/13/11 113/65/51
f 121/96/70 55/97/69 56/98/72 122/99/73
f 42/100/74 123/101/75 120/102/67 40/103/66
f 123/101/75 44/104/76 46/105/68 120/102/67
f 23/106/77 122/99/73 126/107/78 106/108/79
f 122/99/73 56/98/72 108/109/80 126/107/78
f 124/110/81 20/111/81 107/112/82 127/113/83
f 106/108/79 126/107/78 128/114/84 109/115/85
f 126/107/78 108/109/80 111/116/86 128/114/84
f 127/113/83 107/112/82 110/117/87 129/118/88
f 129/118/88 110/117/87 109/115/85 128/114/84
l 98 99
l 4 64
l 1 63
l 87 95
l 1 2
l 41 42
l 41 43
l 91 92
l 41 125
l 65 66
l 94 96
l 92 93
l 44 45
l 2 5
l 89 91
l 95 96
l 101 104
l 101 105
l 20 21
l 59 60
l 59 62
l 97 98
l 21 24
l 93 94
l 10 12
