# Blender v2.92.0 OBJ File: 'untitled.blend'
# www.blender.org
mtllib left.mtl
v 0.095529 1.420513 -0.213949
v 0.102824 1.436859 -0.211610
v 0.106926 1.410032 -0.213094
v 0.092893 1.398086 -0.216030
v 0.085169 1.421016 -0.212209
v 0.082314 1.435317 -0.205044
v 0.085708 1.446716 -0.201963
v 0.073825 1.428990 -0.195528
v 0.075625 1.420053 -0.201567
v 0.079760 1.419794 -0.199031
v 0.078232 1.445102 -0.190569
v 0.086607 1.459883 -0.184649
v 0.084887 1.436528 -0.193165
v 0.093097 1.454206 -0.184759
v 0.097322 1.427416 -0.196872
v 0.106534 1.444944 -0.188228
v 0.091295 1.409629 -0.200039
v 0.108878 1.420312 -0.193262
v 0.105184 1.402882 -0.195540
v 0.129520 1.412454 -0.178954
v 0.116905 1.435371 -0.185705
v 0.126979 1.449180 -0.171996
v 0.132962 1.428027 -0.172577
v 0.140046 1.443106 -0.160312
v 0.117556 1.458567 -0.176092
v 0.104653 1.467995 -0.177441
v 0.131492 1.465369 -0.163944
v 0.113537 1.476699 -0.168385
v 0.106619 1.480346 -0.172032
v 0.124918 1.476630 -0.176712
v 0.116590 1.463773 -0.191451
v 0.114953 1.480378 -0.179352
v 0.104980 1.474065 -0.187640
v 0.094066 1.458966 -0.193217
v 0.100918 1.475172 -0.180103
v 0.107523 1.450409 -0.200465
v 0.121193 1.439350 -0.205456
v 0.124387 1.452900 -0.198324
v 0.130362 1.458590 -0.194193
v 0.134257 1.445650 -0.202241
v 0.146261 1.440118 -0.195779
v 0.165930 1.452780 -0.192538
v 0.168912 1.447964 -0.192721
v 0.163760 1.458719 -0.190053
v 0.189074 1.465356 -0.174136
v 0.190534 1.461521 -0.172857
v 0.200758 1.470301 -0.160678
v 0.188323 1.469039 -0.173599
v 0.199591 1.473534 -0.160131
v 0.201583 1.466761 -0.159935
v 0.199836 1.463217 -0.155280
v 0.189880 1.467411 -0.145291
v 0.190638 1.456425 -0.167198
v 0.184709 1.460047 -0.160661
v 0.169302 1.444023 -0.175588
v 0.169884 1.444019 -0.186611
v 0.153432 1.436500 -0.187284
v 0.161236 1.435657 -0.177901
v 0.144492 1.429674 -0.188167
v 0.134886 1.433313 -0.200418
v 0.134716 1.415177 -0.194256
v 0.157612 1.427269 -0.173853
v 0.147755 1.410312 -0.179129
v 0.167923 1.408604 -0.165352
v 0.163118 1.441861 -0.168454
v 0.166461 1.446713 -0.165162
v 0.168780 1.421605 -0.151663
v 0.164257 1.445703 -0.172404
v 0.171459 1.451882 -0.171568
v 0.184083 1.466488 -0.158760
v 0.189068 1.472279 -0.142205
v 0.168687 1.437329 -0.142930
v 0.163613 1.420631 -0.146076
v 0.165691 1.435264 -0.139141
v 0.160226 1.408959 -0.155769
v 0.155848 1.398640 -0.160553
v 0.145076 1.385079 -0.172603
v 0.159667 1.400808 -0.171690
v 0.149137 1.387765 -0.178702
v 0.137322 1.369498 -0.190906
v 0.139623 1.393960 -0.185010
v 0.130413 1.382672 -0.192646
v 0.129176 1.397210 -0.196492
v 0.116873 1.402893 -0.208071
v 0.123744 1.420214 -0.206600
v 0.114147 1.426888 -0.212709
v 0.132874 1.366940 -0.183001
v 0.132119 1.359330 -0.194294
v 0.126354 1.346369 -0.196337
v 0.126446 1.357585 -0.186455
v 0.118897 1.346599 -0.190511
v 0.116044 1.365121 -0.190152
v 0.119673 1.379556 -0.187739
v 0.101358 1.367848 -0.196555
v 0.107904 1.345936 -0.191527
v 0.102562 1.328381 -0.194475
v 0.096853 1.349742 -0.198677
v 0.088523 1.354795 -0.204564
v 0.094002 1.331045 -0.199697
v 0.085551 1.335376 -0.205052
v 0.093918 1.313242 -0.199831
v 0.100184 1.312283 -0.197532
v 0.086252 1.317235 -0.204722
v 0.095686 1.302219 -0.200365
v 0.102391 1.303121 -0.197701
v 0.097956 1.302312 -0.204550
v 0.086910 1.306376 -0.204579
v 0.079951 1.317098 -0.210516
v 0.088826 1.306389 -0.209049
v 0.082221 1.317173 -0.215225
v 0.075926 1.338432 -0.213136
v 0.080650 1.323373 -0.208469
v 0.078982 1.339350 -0.209509
v 0.080789 1.359515 -0.209594
v 0.083542 1.378327 -0.207084
v 0.076020 1.361172 -0.214096
v 0.078434 1.380219 -0.210227
v 0.079385 1.400457 -0.207909
v 0.084558 1.400607 -0.214839
v 0.083630 1.398041 -0.205432
v 0.092665 1.390242 -0.201578
v 0.103662 1.385378 -0.195792
v 0.091991 1.372535 -0.202178
v 0.105671 1.302976 -0.202099
v 0.112449 1.311565 -0.202139
v 0.118685 1.328331 -0.200676
v 0.105873 1.311766 -0.197697
v 0.110752 1.328346 -0.195229
v 0.124160 1.396010 -0.183414
v 0.165774 1.443222 -0.135484
v 0.167735 1.447734 -0.126975
v 0.170968 1.443583 -0.139463
v 0.171758 1.453260 -0.156312
v 0.172491 1.450252 -0.135301
v 0.171473 1.456160 -0.150235
v 0.177880 1.452014 -0.130858
v 0.171133 1.460919 -0.143853
v 0.179251 1.451878 -0.122009
v 0.172340 1.447761 -0.119387
v 0.183324 1.444948 -0.125200
v 0.184871 1.439889 -0.121804
v 0.183406 1.444850 -0.119587
v 0.178471 1.442061 -0.117462
v 0.180853 1.438792 -0.115422
v 0.181097 1.444432 -0.116052
v 0.176445 1.450821 -0.117372
v 0.163612 1.464931 -0.129387
v 0.169198 1.465623 -0.133639
v 0.159239 1.463649 -0.139699
v 0.104551 1.390270 -0.213844
vt 0.245900 0.732500
vt 0.245700 0.744800
vt 0.232300 0.737900
vt 0.231600 0.729500
vt 0.255500 0.735600
vt 0.256100 0.748300
vt 0.260000 0.762200
vt 0.249900 0.760300
vt 0.243600 0.760800
vt 0.238700 0.747100
vt 0.228700 0.749700
vt 0.223600 0.743300
vt 0.221800 0.730300
vt 0.225900 0.633200
vt 0.229700 0.634300
vt 0.224100 0.641700
vt 0.232000 0.648800
vt 0.226000 0.655100
vt 0.222300 0.717000
vt 0.230700 0.717400
vt 0.230800 0.668300
vt 0.236600 0.664800
vt 0.247900 0.658300
vt 0.242500 0.642400
vt 0.240100 0.627500
vt 0.258100 0.653000
vt 0.253000 0.639100
vt 0.252800 0.624900
vt 0.274000 0.638100
vt 0.271600 0.623800
vt 0.276100 0.652100
vt 0.267300 0.668900
vt 0.256300 0.673200
vt 0.284100 0.668800
vt 0.244300 0.678400
vt 0.267400 0.684900
vt 0.251500 0.687300
vt 0.245400 0.689200
vt 0.239200 0.683000
vt 0.257600 0.694200
vt 0.250700 0.694800
vt 0.253800 0.708900
vt 0.244500 0.701500
vt 0.240300 0.696500
vt 0.236900 0.710600
vt 0.229500 0.705800
vt 0.247600 0.719400
vt 0.243800 0.719600
vt 0.230400 0.606700
vt 0.216000 0.606800
vt 0.209700 0.615300
vt 0.221300 0.618700
vt 0.257000 0.724100
vt 0.220500 0.594900
vt 0.209500 0.602200
vt 0.199200 0.621600
vt 0.210400 0.625400
vt 0.182600 0.612300
vt 0.181000 0.616200
vt 0.159900 0.605800
vt 0.158400 0.608800
vt 0.182800 0.606800
vt 0.160000 0.603000
vt 0.147400 0.601800
vt 0.146200 0.603900
vt 0.148000 0.599600
vt 0.142700 0.606700
vt 0.154400 0.613700
vt 0.131800 0.613000
vt 0.148500 0.619900
vt 0.178100 0.620800
vt 0.163900 0.627400
vt 0.171800 0.627100
vt 0.190900 0.628000
vt 0.181100 0.633200
vt 0.199400 0.632900
vt 0.184800 0.641300
vt 0.280900 0.721500
vt 0.277400 0.735000
vt 0.264700 0.736200
vt 0.268900 0.723300
vt 0.295400 0.717900
vt 0.292400 0.732900
vt 0.307600 0.727300
vt 0.304300 0.734900
vt 0.297500 0.705900
vt 0.313600 0.716600
vt 0.170300 0.632200
vt 0.171200 0.636700
vt 0.316900 0.703800
vt 0.299900 0.701400
vt 0.156200 0.590900
vt 0.172500 0.590300
vt 0.159700 0.587400
vt 0.146600 0.585200
vt 0.144200 0.587700
vt 0.320800 0.704900
vt 0.319100 0.717000
vt 0.315600 0.727800
vt 0.313100 0.736700
vt 0.305500 0.750900
vt 0.300400 0.748000
vt 0.290400 0.747000
vt 0.300100 0.768400
vt 0.293500 0.765700
vt 0.285200 0.758200
vt 0.278700 0.749000
vt 0.265500 0.749800
vt 0.298700 0.777200
vt 0.291800 0.774500
vt 0.297600 0.787700
vt 0.290800 0.785300
vt 0.269300 0.598000
vt 0.279200 0.594300
vt 0.282900 0.602700
vt 0.269900 0.609900
vt 0.266700 0.581900
vt 0.274800 0.584300
vt 0.255000 0.611000
vt 0.256500 0.597100
vt 0.256100 0.582300
vt 0.265400 0.567600
vt 0.271700 0.568700
vt 0.257400 0.567700
vt 0.247200 0.598600
vt 0.247400 0.584300
vt 0.249000 0.569100
vt 0.260600 0.554300
vt 0.265900 0.554700
vt 0.253000 0.555600
vt 0.263700 0.546100
vt 0.269000 0.548000
vt 0.255500 0.547500
vt 0.283600 0.816900
vt 0.285000 0.820300
vt 0.280000 0.822400
vt 0.279600 0.819300
vt 0.272500 0.822400
vt 0.273000 0.819000
vt 0.246800 0.559000
vt 0.246500 0.553900
vt 0.263800 0.817200
vt 0.266000 0.814200
vt 0.242300 0.570600
vt 0.238900 0.569000
vt 0.239500 0.586100
vt 0.234200 0.586000
vt 0.238600 0.601100
vt 0.233700 0.601300
vt 0.235200 0.616500
vt 0.230900 0.617200
vt 0.237500 0.762700
vt 0.244400 0.612400
vt 0.285800 0.811400
vt 0.289800 0.815100
vt 0.288100 0.800000
vt 0.294700 0.803100
vt 0.270300 0.555200
vt 0.317500 0.698100
vt 0.322500 0.698200
vt 0.317800 0.692200
vt 0.325900 0.690600
vt 0.305300 0.696100
vt 0.308000 0.693200
vt 0.318300 0.688400
vt 0.326500 0.681300
vt 0.310500 0.689800
vt 0.313100 0.685900
vt 0.318600 0.685600
vt 0.319400 0.685800
vt 0.319500 0.686100
vt 0.319600 0.685800
vt 0.319500 0.685800
vt 0.319600 0.685800
vt 0.319200 0.684600
vt 0.319500 0.685700
vt 0.313600 0.683800
vt 0.309100 0.683300
vt 0.320500 0.676300
vn -0.0221 0.3918 -0.9198
vn -0.0679 0.1649 -0.9840
vn -0.6021 0.3202 -0.7314
vn -0.4764 0.5341 -0.6984
vn 0.2843 0.1342 -0.9493
vn 0.2284 -0.0085 -0.9735
vn 0.1667 0.0463 -0.9849
vn 0.0445 0.0765 -0.9961
vn -0.4482 0.1096 -0.8872
vn -0.4498 0.2338 -0.8620
vn -0.9799 -0.1982 0.0212
vn -0.8997 -0.1048 0.4237
vn -0.8703 0.2004 0.4498
vn -0.2804 -0.3530 0.8926
vn -0.0378 -0.3366 0.9409
vn -0.8025 0.4107 0.4327
vn -0.3599 0.6330 -0.6854
vn -0.2014 -0.3159 0.9272
vn -0.3065 -0.3564 0.8826
vn -0.1950 -0.2404 0.9509
vn -0.2818 -0.1527 0.9473
vn -0.5642 -0.2121 0.7979
vn -0.4719 -0.1017 0.8758
vn -0.4506 -0.0350 0.8920
vn -0.5954 -0.0693 0.8004
vn -0.5344 -0.0207 0.8450
vn -0.6626 -0.1719 0.7290
vn -0.6346 -0.2532 0.7302
vn -0.4204 -0.3943 0.8172
vn -0.6887 -0.2138 0.6928
vn -0.4187 -0.2884 0.8611
vn -0.4385 -0.4321 0.7880
vn -0.3112 0.2333 0.9213
vn -0.5197 0.6848 0.5108
vn -0.7586 0.6123 0.2230
vn 0.3703 0.8644 -0.3401
vn 0.1825 0.9373 -0.2968
vn 0.0913 0.5360 -0.8392
vn -0.1745 0.7131 -0.6790
vn 0.0225 0.5395 -0.8417
vn 0.0278 0.5085 -0.8606
vn 0.2618 0.0427 -0.9642
vn 0.2620 0.3122 -0.9132
vn 0.0320 0.5503 -0.8343
vn 0.4081 -0.4035 -0.8189
vn 0.5388 -0.1790 -0.8232
vn 0.4259 0.0973 -0.8995
vn 0.5239 -0.3421 -0.7801
vn 0.5960 0.2453 -0.7646
vn 0.7562 -0.2045 -0.6216
vn 0.4168 0.3851 -0.8234
vn 0.5715 0.3363 -0.7485
vn 0.7152 0.1773 -0.6761
vn 0.7994 -0.2898 -0.5262
vn 0.6744 0.2932 -0.6777
vn 0.4201 -0.8996 0.1195
vn 0.5285 -0.8452 0.0801
vn -0.6965 -0.5384 0.4743
vn -0.3042 -0.6450 0.7010
vn 0.5701 -0.7326 -0.3720
vn 0.0239 -0.6339 0.7731
vn 0.4434 -0.7994 0.4054
vn 0.4966 -0.6752 -0.5454
vn 0.7507 -0.6395 -0.1657
vn 0.6442 -0.3881 -0.6590
vn 0.7994 -0.1922 -0.5692
vn 0.7022 -0.1817 -0.6884
vn 0.5642 -0.0860 -0.8212
vn 0.6422 -0.0877 -0.7615
vn 0.9032 -0.3735 -0.2117
vn 0.8056 -0.4196 -0.4183
vn 0.9765 -0.1340 -0.1686
vn 0.9449 -0.2904 0.1513
vn 0.6042 -0.5164 0.6068
vn 0.9223 -0.3218 0.2140
vn 0.9655 -0.1472 -0.2148
vn -0.7972 -0.2961 0.5262
vn -0.8731 -0.2854 0.3953
vn 0.7281 -0.3730 0.5751
vn 0.7092 -0.4540 0.5393
vn 0.6517 -0.6257 0.4286
vn 0.6989 -0.6739 0.2397
vn 0.7360 -0.6521 0.1818
vn 0.8288 -0.3828 -0.4081
vn 0.6412 -0.0105 -0.7673
vn 0.4992 -0.5595 0.6617
vn 0.8739 -0.4834 -0.0513
vn 0.6282 0.0483 -0.7765
vn 0.7027 -0.1380 -0.6980
vn 0.5610 -0.1454 -0.8149
vn 0.2435 -0.3748 0.8946
vn 0.7166 -0.5451 0.4352
vn 0.2227 -0.3064 0.9255
vn 0.6014 -0.4688 0.6470
vn -0.3789 -0.0193 0.9252
vn -0.4467 -0.0305 0.8941
vn -0.3019 -0.0507 0.9520
vn -0.4620 -0.0165 0.8867
vn -0.4774 0.0213 0.8784
vn -0.5142 0.0413 0.8567
vn -0.2540 -0.1018 0.9618
vn 0.2837 -0.2767 0.9181
vn -0.5195 0.0053 0.8544
vn -0.5105 -0.0088 0.8598
vn -0.5347 0.0257 0.8447
vn -0.5441 0.0225 0.8387
vn -0.4716 -0.0599 0.8798
vn -0.2142 -0.0921 0.9724
vn -0.5900 -0.0452 0.8061
vn -0.3676 -0.7671 0.5258
vn 0.1233 -0.6233 0.7722
vn -0.7117 -0.6067 0.3542
vn 0.4735 -0.7092 0.5224
vn -0.1161 -0.9919 -0.0506
vn -0.5543 -0.7887 -0.2659
vn -0.6904 -0.0438 0.7221
vn -0.8578 -0.3619 0.3651
vn -0.7050 -0.6291 -0.3275
vn -0.6602 0.0159 0.7509
vn -0.7602 -0.0093 0.6496
vn -0.6089 0.0060 0.7932
vn -0.6669 -0.0039 0.7451
vn -0.5399 -0.0458 0.8405
vn -0.5764 -0.0593 0.8150
vn -0.4600 -0.1691 0.8717
vn -0.9131 -0.1692 0.3711
vn -0.4331 -0.0576 0.8995
vn 0.5685 -0.3080 0.7628
vn 0.3431 -0.2338 0.9097
vn 0.5371 -0.3559 0.7647
vn 0.8968 -0.3982 0.1927
vn 0.6812 -0.5537 0.4789
vn 0.8622 -0.5032 -0.0590
vn -0.2098 -0.9089 0.3603
vn 0.9534 -0.2604 -0.1522
vn 0.9851 -0.1035 -0.1375
vn 0.9213 -0.1758 -0.3469
vn -0.6754 -0.5470 0.4946
vn 0.9579 0.1128 -0.2641
vn 0.6891 0.6931 0.2114
vn 0.7081 0.6567 0.2595
vn 0.8448 0.5014 0.1866
vn 0.5834 -0.2667 -0.7671
vn -0.7953 -0.5548 0.2442
vn -0.1530 -0.6581 -0.7372
vn -0.8380 -0.5385 -0.0886
vn 0.0413 0.4399 0.8971
vn -0.0133 0.2791 0.9602
vn -0.5460 0.3507 0.7608
vn -0.8797 -0.1475 0.4520
usemtl Skeleton
s 1
f 2/1/1 1/2/2 6/3/3 7/4/4
f 86/5/5 3/6/6 1/2/2 2/1/1
f 3/6/6 150/7/7 4/8/8 1/2/2
f 1/2/2 4/8/8 119/9/9 5/10/10
f 1/2/2 5/10/10 6/3/3
f 5/10/10 9/11/11 8/12/12 6/3/3
f 6/3/3 8/12/12 11/13/13 7/4/4
f 9/14/11 10/15/14 8/16/12
f 13/17/15 11/18/13 8/16/12 10/15/14
f 7/4/4 11/13/13 12/19/16 34/20/17
f 12/21/16 11/18/13 13/17/15 14/22/18
f 16/23/19 14/22/18 13/17/15 15/24/20
f 15/24/20 13/17/15 10/15/14 17/25/21
f 21/26/22 16/23/19 15/24/20 18/27/23
f 18/27/23 15/24/20 17/25/21 19/28/24
f 20/29/25 18/27/23 19/28/24 129/30/26
f 23/31/27 21/26/22 18/27/23 20/29/25
f 22/32/28 25/33/29 16/23/19 21/26/22
f 24/34/30 22/32/28 21/26/22 23/31/27
f 25/33/29 26/35/31 14/22/18 16/23/19
f 27/36/32 28/37/33 26/35/31 25/33/29
f 29/38/34 35/39/35 26/35/31 28/37/33
f 30/40/36 32/41/37 29/38/34 28/37/33
f 32/41/37 30/40/36 31/42/38 33/43/39
f 32/41/37 33/43/39 35/44/35 29/38/34
f 34/45/17 12/46/16 35/44/35 33/43/39
f 31/42/38 36/47/40 34/45/17 33/43/39
f 26/35/31 35/39/35 12/21/16 14/22/18
f 34/20/17 36/48/40 2/1/1 7/4/4
f 36/49/40 38/50/41 40/51/42 37/52/43
f 37/53/43 86/5/5 2/1/1 36/48/40
f 31/54/38 39/55/44 38/50/41 36/49/40
f 37/52/43 40/51/42 41/56/45 60/57/46
f 40/51/42 42/58/47 43/59/48 41/56/45
f 42/58/47 45/60/49 46/61/50 43/59/48
f 44/62/51 48/63/52 45/60/49 42/58/47
f 45/60/49 47/64/53 50/65/54 46/61/50
f 48/63/52 49/66/55 47/64/53 45/60/49
f 46/61/50 50/65/54 51/67/56 53/68/57
f 53/68/57 51/67/56 52/69/58 54/70/59
f 43/59/48 46/61/50 53/68/57 56/71/60
f 53/68/57 54/70/59 69/72/61 55/73/62
f 53/68/57 55/73/62 56/71/60
f 57/74/63 56/71/60 55/73/62 58/75/64
f 41/56/45 43/59/48 56/71/60 57/74/63
f 59/76/65 57/74/63 58/75/64 62/77/66
f 60/57/46 41/56/45 57/74/63 59/76/65
f 59/78/65 61/79/67 85/80/68 60/81/46
f 59/78/65 62/82/66 63/83/69 61/79/67
f 63/83/69 62/82/66 64/84/70 78/85/71
f 65/86/72 67/87/73 64/84/70 62/82/66
f 62/77/66 58/75/64 68/88/74 65/89/72
f 72/90/75 67/87/73 65/86/72 66/91/76
f 58/75/64 55/73/62 69/72/61 68/88/74
f 70/92/77 69/93/61 54/94/59
f 54/94/59 52/95/58 71/96/78 70/92/77
f 72/90/75 74/97/79 73/98/80 67/87/73
f 67/87/73 73/98/80 75/99/81 64/84/70
f 64/84/70 75/99/81 76/100/82 78/85/71
f 78/85/71 76/100/82 77/101/83 79/102/84
f 81/103/85 63/83/69 78/85/71 79/102/84
f 79/102/84 77/101/83 87/104/86 80/105/87
f 80/105/87 82/106/88 81/103/85 79/102/84
f 82/106/88 83/107/89 81/103/85
f 61/79/67 63/83/69 81/103/85 83/107/89
f 61/79/67 83/107/89 84/108/90 85/80/68
f 85/80/68 84/108/90 3/6/6 86/5/5
f 60/81/46 85/80/68 86/5/5 37/53/43
f 87/104/86 90/109/91 88/110/92 80/105/87
f 90/109/91 91/111/93 89/112/94 88/110/92
f 92/113/95 90/114/91 87/115/86 93/116/96
f 95/117/97 91/118/93 90/114/91 92/113/95
f 93/116/96 122/119/98 94/120/99 92/113/95
f 92/113/95 94/120/99 97/121/100 95/117/97
f 96/122/101 128/123/102 91/118/93 95/117/97
f 95/117/97 97/121/100 99/124/103 96/122/101
f 94/120/99 123/125/104 98/126/105 97/121/100
f 97/121/100 98/126/105 100/127/106 99/124/103
f 96/122/101 99/124/103 101/128/107 102/129/108
f 99/124/103 100/127/106 103/130/109 101/128/107
f 101/128/107 104/131/110 105/132/111 102/129/108
f 103/130/109 107/133/112 104/131/110 101/128/107
f 124/134/113 105/135/111 104/136/110 106/137/114
f 106/137/114 104/136/110 107/138/112 109/139/115
f 112/140/116 108/141/117 107/133/112 103/130/109
f 109/139/115 107/138/112 108/142/117 110/143/118
f 113/144/119 111/145/120 108/141/117 112/140/116
f 100/127/106 113/144/119 112/140/116 103/130/109
f 114/146/121 116/147/122 111/145/120 113/144/119
f 98/126/105 114/146/121 113/144/119 100/127/106
f 115/148/123 117/149/124 116/147/122 114/146/121
f 123/125/104 115/148/123 114/146/121 98/126/105
f 120/150/125 118/151/126 117/149/124 115/148/123
f 119/9/9 118/152/126 9/11/11 5/10/10
f 10/15/14 9/14/11 118/151/126 120/150/125
f 121/153/127 120/150/125 115/148/123 123/125/104
f 17/25/21 10/15/14 120/150/125 121/153/127
f 19/28/24 17/25/21 121/153/127 122/119/98
f 122/119/98 121/153/127 123/125/104 94/120/99
f 129/30/26 19/28/24 122/119/98 93/116/96
f 125/154/128 127/155/129 105/135/111 124/134/113
f 126/156/130 128/157/102 127/155/129 125/154/128
f 105/132/111 127/158/129 102/129/108
f 102/129/108 127/158/129 128/123/102 96/122/101
f 89/112/94 91/111/93 128/157/102 126/156/130
f 132/159/131 130/160/132 74/97/79 72/90/75
f 134/161/133 131/162/134 130/160/132 132/159/131
f 66/91/76 133/163/135 132/159/131 72/90/75
f 134/161/133 132/159/131 133/163/135 135/164/136
f 136/165/137 139/166/138 131/162/134 134/161/133
f 136/165/137 134/161/133 135/164/136 137/167/139
f 137/167/139 148/168/140 138/169/141 136/165/137
f 138/169/141 142/170/142 140/171/143 136/165/137
f 140/171/143 143/172/144 139/166/138 136/165/137
f 141/173/145 144/174/146 143/172/144 140/171/143
f 141/173/145 140/171/143 142/170/142
f 146/175/147 139/166/138 143/172/144 145/176/148
f 143/172/144 144/174/146 145/176/148
f 138/169/141 146/175/147 145/176/148 142/170/142
f 147/177/149 139/166/138 146/175/147
f 148/168/140 147/177/149 146/175/147 138/169/141
f 139/166/138 147/177/149 149/178/150 131/179/134
