# Blender v2.92.0 OBJ File: 'untitled.blend'
# www.blender.org
mtllib leftforearm.mtl
v -0.183406 1.444850 -0.119587
v -0.183324 1.444948 -0.125200
v -0.184871 1.439889 -0.121804
v -0.181097 1.444432 -0.116052
v -0.180853 1.438792 -0.115422
v -0.184709 1.460047 -0.160661
v -0.184083 1.466488 -0.158760
v -0.200758 1.470301 -0.160678
v -0.207363 1.472324 -0.147925
v -0.205884 1.468839 -0.143540
v -0.202591 1.467440 -0.140089
v -0.206147 1.473825 -0.145131
v -0.199002 1.472379 -0.136262
v -0.202438 1.472120 -0.138975
v -0.406036 1.448194 -0.130966
v -0.406330 1.448384 -0.153367
v -0.409924 1.446375 -0.151998
v -0.410022 1.446209 -0.132922
v -0.399925 1.452177 -0.128520
v -0.399143 1.452396 -0.156391
v -0.388123 1.448765 -0.141988
v -0.387641 1.448832 -0.154171
v -0.372521 1.439934 -0.140967
v -0.372920 1.440015 -0.155701
v -0.346246 1.439899 -0.136565
v -0.346246 1.439834 -0.154385
v -0.295336 1.444379 -0.128385
v -0.295336 1.444937 -0.146351
v -0.240218 1.444409 -0.120118
v -0.240218 1.446457 -0.142643
v -0.220613 1.453920 -0.116438
v -0.219152 1.455579 -0.142692
v -0.207729 1.458223 -0.111735
v -0.208703 1.459859 -0.150278
v -0.195795 1.464174 -0.110436
v -0.188513 1.455977 -0.117996
v -0.188513 1.457093 -0.150740
v -0.182447 1.445411 -0.141781
v -0.188678 1.409229 -0.117862
v -0.201040 1.401219 -0.110329
v -0.208263 1.407466 -0.111611
v -0.219933 1.413080 -0.116322
v -0.238969 1.415448 -0.120037
v -0.293233 1.415365 -0.128313
v -0.344143 1.417789 -0.136521
v -0.370839 1.409924 -0.140948
v -0.386021 1.393679 -0.141976
v -0.396566 1.381862 -0.132625
v -0.404009 1.385252 -0.130477
v -0.408050 1.398423 -0.132140
v -0.198114 1.468360 -0.132990
v -0.186890 1.467652 -0.162021
v -0.188435 1.468450 -0.164622
v -0.199242 1.474983 -0.158883
v -0.199161 1.474959 -0.156318
v -0.197644 1.474032 -0.151502
v -0.193454 1.473547 -0.146062
v -0.201583 1.466761 -0.159935
v -0.189068 1.472279 -0.142205
v -0.189880 1.467411 -0.145291
v -0.196703 1.467685 -0.136418
v -0.192595 1.472501 -0.134935
v -0.204441 1.472853 -0.141464
v -0.429992 1.408039 -0.177525
v -0.422992 1.408016 -0.175426
v -0.421863 1.429787 -0.175313
v -0.422484 1.429888 -0.155597
v -0.415725 1.423930 -0.160000
v -0.414430 1.423491 -0.164383
v -0.417601 1.441020 -0.149859
v -0.416145 1.403766 -0.134431
v -0.425959 1.406329 -0.149245
v -0.425762 1.406285 -0.135511
v -0.387072 1.421222 -0.141982
v -0.398246 1.417019 -0.130572
v -0.371680 1.424929 -0.140957
v -0.345195 1.428844 -0.136543
v -0.294284 1.429872 -0.128349
v -0.239594 1.429929 -0.120077
v -0.220273 1.433500 -0.116380
v -0.207996 1.432845 -0.111673
v -0.198417 1.432697 -0.110382
v -0.405023 1.416723 -0.130721
v -0.409036 1.422316 -0.132531
v -0.188595 1.432603 -0.117929
v -0.409133 1.422432 -0.152292
v -0.416912 1.422329 -0.134735
v -0.416987 1.422419 -0.150087
v -0.426425 1.422335 -0.135774
v -0.426490 1.422413 -0.149048
vt 0.319300 0.685000
vt 0.319500 0.685300
vt 0.319400 0.685000
vt 0.137800 0.588700
vt 0.137600 0.591800
vt 0.133600 0.592700
vt 0.168500 0.222800
vt 0.157800 0.227700
vt 0.155900 0.222600
vt 0.168200 0.219100
vt 0.167300 0.232100
vt 0.159500 0.234200
vt 0.172300 0.244500
vt 0.159700 0.246800
vt 0.180300 0.265400
vt 0.166100 0.269100
vt 0.199000 0.302000
vt 0.185900 0.307500
vt 0.228200 0.339000
vt 0.210500 0.353200
vt 0.242400 0.352900
vt 0.226100 0.371300
vt 0.252300 0.358200
vt 0.231100 0.382300
vt 0.319400 0.685000
vt 0.319400 0.684900
vt 0.146400 0.594800
vt 0.145700 0.590100
vt 0.158000 0.594900
vt 0.158200 0.597200
vt 0.145800 0.585500
vt 0.158200 0.591800
vt 0.131100 0.618300
vt 0.135900 0.616100
vt 0.151700 0.620500
vt 0.146800 0.624100
vt 0.125300 0.613800
vt 0.128700 0.609000
vt 0.139300 0.583900
vt 0.138300 0.594100
vt 0.148000 0.597600
vt 0.139700 0.596600
vt 0.149200 0.599100
vt 0.135400 0.597100
vt 0.134300 0.586500
vt 0.114700 0.246700
vt 0.106600 0.265200
vt 0.096700 0.257700
vt 0.107800 0.238400
vt 0.185300 0.231800
vt 0.187200 0.221600
vt 0.123200 0.263000
vt 0.115100 0.273000
vt 0.184200 0.242600
vt 0.135400 0.285800
vt 0.127100 0.290200
vt 0.188200 0.262600
vt 0.152800 0.325500
vt 0.141800 0.328100
vt 0.208500 0.296200
vt 0.162700 0.370200
vt 0.151100 0.369000
vt 0.236000 0.329200
vt 0.161700 0.388500
vt 0.145400 0.381400
vt 0.247400 0.337900
vt 0.158800 0.400500
vt 0.141600 0.389700
vt 0.256700 0.340000
vt 0.158800 0.408200
vt 0.137600 0.395800
vt 0.263600 0.341500
vt 0.260400 0.364600
vt 0.186900 0.217500
vt 0.092600 0.255300
vt 0.103300 0.236200
vt 0.112900 0.209900
vt 0.134800 0.204300
vt 0.138200 0.206600
vt 0.123300 0.210100
vt 0.153900 0.206100
vt 0.151300 0.208700
vt 0.208200 0.428300
vt 0.222500 0.427400
vt 0.224200 0.436200
vt 0.201100 0.437100
vt 0.236700 0.422300
vt 0.245400 0.426400
vt 0.138500 0.210300
vt 0.130000 0.213000
vt 0.152800 0.221000
vt 0.140600 0.225500
vt 0.140100 0.222000
vt 0.147500 0.218900
vt 0.139600 0.218300
vt 0.135200 0.218600
vt 0.134200 0.215100
vt 0.139000 0.214200
vn -0.9288 0.1239 0.3492
vn -0.9579 0.2869 -0.0090
vn -0.9394 0.1433 0.3115
vn -0.3392 0.5582 0.7572
vn -0.5369 0.5494 0.6402
vn -0.6343 -0.1443 0.7595
vn 0.1208 0.6669 0.7353
vn -0.0833 0.9965 0.0105
vn -0.5152 0.8571 0.0020
vn -0.4738 0.3925 0.7884
vn 0.5347 0.7210 0.4407
vn 0.4003 0.9163 0.0113
vn 0.0769 0.6376 0.7665
vn 0.2637 0.9646 0.0035
vn -0.1510 0.6856 0.7121
vn -0.0426 0.9991 0.0066
vn -0.1436 0.6941 0.7054
vn -0.0610 0.9974 0.0373
vn -0.2735 0.5967 0.7544
vn -0.2236 0.9727 0.0616
vn -0.4395 0.6386 0.6317
vn -0.3723 0.9268 0.0497
vn -0.3043 0.3223 0.8964
vn -0.3400 0.9394 0.0452
vn -0.8418 0.0162 0.5395
vn 0.1704 0.9838 0.0552
vn 0.1976 0.9801 -0.0197
vn 0.4192 0.8960 -0.1463
vn 0.3998 0.9057 -0.1406
vn 0.8146 0.4576 0.3564
vn 0.9097 0.3761 0.1758
vn 0.8221 -0.3829 0.4214
vn 0.8731 -0.2854 0.3953
vn 0.4579 0.3551 0.8150
vn 0.0355 -0.4184 0.9076
vn -0.3542 0.7871 0.5050
vn 0.0689 0.9867 0.1470
vn 0.0634 0.9882 0.1397
vn -0.7599 -0.0964 0.6429
vn 0.5255 0.0043 0.8508
vn 0.3574 0.0032 0.9340
vn 0.3746 -0.0109 0.9271
vn 0.4111 -0.0090 0.9115
vn -0.1007 -0.0055 0.9949
vn -0.1145 -0.0066 0.9934
vn -0.1605 -0.0107 0.9870
vn -0.1608 -0.0107 0.9869
vn -0.1544 -0.0083 0.9880
vn -0.1541 -0.0084 0.9880
vn -0.1712 -0.0042 0.9852
vn -0.1687 -0.0042 0.9857
vn -0.2935 0.0000 0.9560
vn -0.2736 -0.0003 0.9618
vn -0.2228 0.0070 0.9748
vn -0.2482 0.0054 0.9687
vn 0.2355 -0.0095 0.9718
vn 0.2576 -0.0106 0.9662
vn 0.2780 -0.0116 0.9605
vn -0.2226 -0.0165 0.9748
vn 0.0683 -0.0196 0.9975
vn -0.3720 -0.0016 0.9282
vn -0.3709 -0.0019 0.9287
vn -0.4278 -0.0051 0.9038
vn 0.5684 -0.0262 0.8224
vn 0.6117 -0.0284 0.7906
vn 0.6533 -0.0305 0.7565
vn -0.2695 0.0046 0.9630
vn -0.2703 0.0029 -0.9628
vn -0.9993 -0.0371 0.0095
usemtl Skeleton
s 1
f 1/1/1 2/2/2 3/3/3
f 13/4/4 14/5/5 11/6/6
f 19/7/7 20/8/8 16/9/9 15/10/10
f 21/11/11 22/12/12 20/8/8 19/7/7
f 23/13/13 24/14/14 22/12/12 21/11/11
f 25/15/15 26/16/16 24/14/14 23/13/13
f 27/17/17 28/18/18 26/16/16 25/15/15
f 29/19/19 30/20/20 28/18/18 27/17/17
f 31/21/21 32/22/22 30/20/20 29/19/19
f 33/23/23 34/24/24 32/22/22 31/21/21
f 5/25/25 4/26/25 1/1/1 3/3/3
f 56/27/26 57/28/27 52/29/28 53/30/29
f 57/28/27 59/31/30 7/32/31 52/29/28
f 59/33/30 60/34/32 6/35/33 7/36/31
f 62/37/34 61/38/35 60/34/32 59/33/30
f 13/4/4 62/39/34 59/31/30 57/28/27
f 14/5/5 13/4/4 57/28/27 56/27/26
f 63/40/36 14/5/5 56/27/26 55/41/37
f 12/42/38 63/40/36 55/41/37 54/43/38
f 11/6/6 14/5/5 63/40/36 10/44/39
f 13/4/4 11/6/6 61/45/35 62/39/34
f 47/46/40 74/47/41 75/48/42 48/49/43
f 74/50/41 21/11/11 19/7/7 75/51/42
f 46/52/44 76/53/45 74/47/41 47/46/40
f 76/54/45 23/13/13 21/11/11 74/50/41
f 45/55/46 77/56/47 76/53/45 46/52/44
f 77/57/47 25/15/15 23/13/13 76/54/45
f 44/58/48 78/59/49 77/56/47 45/55/46
f 78/60/49 27/17/17 25/15/15 77/57/47
f 43/61/50 79/62/51 78/59/49 44/58/48
f 79/63/51 29/19/19 27/17/17 78/60/49
f 42/64/52 80/65/53 79/62/51 43/61/50
f 80/66/53 31/21/21 29/19/19 79/63/51
f 41/67/54 81/68/55 80/65/53 42/64/52
f 81/69/55 33/23/23 31/21/21 80/66/53
f 40/70/56 82/71/57 81/68/55 41/67/54
f 82/72/57 35/73/58 33/23/23 81/69/55
f 15/10/10 83/74/59 75/51/42 19/7/7
f 83/75/59 49/76/60 48/49/43 75/48/42
f 49/77/60 83/78/59 84/79/61 50/80/62
f 83/78/59 15/81/10 18/82/63 84/79/61
f 39/83/64 85/84/65 82/85/57 40/86/56
f 85/84/65 36/87/66 35/88/58 82/85/57
f 50/80/62 84/79/61 87/89/67 71/90/67
f 17/91/68 86/92/68 88/93/68 70/94/68
f 90/95/69 72/96/69 73/97/69 89/98/69
l 68 69
l 66 69
l 64 65
l 16 17
l 65 66
l 36 37
l 37 38
l 8 58
l 8 9
l 67 68
l 88 90
l 71 73
l 9 12
