# Blender v2.92.0 OBJ File: 'untitled.blend'
# www.blender.org
mtllib rightforearm.mtl
v -0.675363 1.440871 -0.121999
v -0.688325 1.432788 -0.122154
v -0.676540 1.439881 -0.148049
v -0.666344 1.421223 -0.151910
v -0.686583 1.432610 -0.143425
v -0.656098 1.442861 -0.145475
v -0.636278 1.442889 -0.141613
v -0.655797 1.424767 -0.145475
v -0.635826 1.427211 -0.141613
v -0.658041 1.424096 -0.126077
v -0.669240 1.416213 -0.125535
v -0.636717 1.426995 -0.126077
v -0.612032 1.430366 -0.125706
v -0.590164 1.431973 -0.125335
v -0.612598 1.430488 -0.138782
v -0.590461 1.432073 -0.137752
v -0.612747 1.441247 -0.138782
v -0.590461 1.441340 -0.137752
v -0.572078 1.440462 -0.139297
v -0.446830 1.442500 -0.153711
v -0.571928 1.432725 -0.139297
v -0.572002 1.432642 -0.126818
v -0.448186 1.426061 -0.153711
v -0.443039 1.426076 -0.153711
v -0.448444 1.426012 -0.142386
v -0.444325 1.425989 -0.140326
v -0.434864 1.426868 -0.137238
v -0.435242 1.449800 -0.137238
v -0.431518 1.427042 -0.153969
v -0.431643 1.443096 -0.153969
v -0.441682 1.445007 -0.153711
v -0.688325 1.420263 -0.122154
v -0.687236 1.419285 -0.145104
vt 0.288800 0.262700
vt 0.303300 0.272600
vt 0.311400 0.254500
vt 0.308400 0.249000
vt 0.340800 0.279700
vt 0.355000 0.269000
vt 0.337800 0.253700
vt 0.323900 0.273500
vt 0.360600 0.241600
vt 0.339300 0.241700
vt 0.357800 0.217300
vt 0.339600 0.219200
vt 0.322700 0.218600
vt 0.320800 0.239600
vt 0.320600 0.249000
vt 0.338400 0.191400
vt 0.322800 0.190500
vt 0.337000 0.164400
vt 0.322400 0.164900
vt 0.348400 0.163400
vt 0.351200 0.189900
vt 0.345700 0.140500
vt 0.335000 0.141400
vt 0.342500 0.042300
vt 0.328800 0.047400
vt 0.319000 0.050100
vt 0.322100 0.143600
vt 0.343600 0.036800
vt 0.327500 0.043300
vt 0.317800 0.047100
vt 0.323000 0.032200
vt 0.315800 0.042300
vt 0.310000 0.041200
vt 0.303700 0.027200
vt 0.338900 0.027200
vt 0.315300 0.254800
vn -0.3068 0.4330 -0.8476
vn -0.7856 0.3984 -0.4735
vn -0.8781 0.4756 -0.0519
vn -0.5586 0.8290 -0.0271
vn 0.1423 -0.5504 -0.8227
vn -0.6504 -0.5616 -0.5115
vn 0.2160 0.0841 -0.9728
vn 0.3881 -0.6062 -0.6942
vn 0.1567 0.0035 -0.9876
vn 0.2027 -0.6981 -0.6867
vn 0.1337 -0.9910 -0.0119
vn 0.3232 -0.9456 -0.0369
vn 0.1661 -0.9831 -0.0768
vn 0.1355 -0.6961 -0.7051
vn 0.1042 -0.9945 -0.0107
vn 0.0273 -0.7138 -0.6998
vn 0.0541 -0.9985 -0.0094
vn -0.0177 -0.0002 -0.9998
vn 0.0843 0.0016 -0.9964
vn -0.0988 0.0024 -0.9951
vn -0.0795 -0.6967 -0.7129
vn -0.0474 0.0024 -0.9989
vn -0.0604 -0.6969 -0.7147
vn -0.0249 -0.9997 -0.0059
vn -0.0064 -1.0000 -0.0070
vn -0.0139 0.0005 -0.9999
vn 0.0258 -0.7177 -0.6959
vn 0.0522 -0.9986 0.0006
vn 0.6557 -0.5343 -0.5335
vn 0.7496 -0.6458 0.1451
vn 0.9795 0.0126 0.2008
vn 0.8046 0.0113 -0.5937
vn -0.7945 -0.5985 -0.1029
usemtl Skeleton
s 1
f 3/1/1 5/2/2 2/3/3 1/4/4
f 5/5/2 3/6/1 4/7/5 33/8/6
f 6/9/7 8/10/8 4/7/5 3/6/1
f 7/11/9 9/12/10 8/10/8 6/9/7
f 8/10/8 9/12/10 12/13/11 10/14/12
f 4/7/5 8/10/8 10/14/12 11/15/13
f 9/12/10 15/16/14 13/17/15 12/13/11
f 15/16/14 16/18/16 14/19/17 13/17/15
f 18/20/18 16/18/16 15/16/14 17/21/19
f 17/21/19 15/16/14 9/12/10 7/11/9
f 19/22/20 21/23/21 16/18/16 18/20/18
f 20/24/22 23/25/23 21/23/21 19/22/20
f 21/23/21 23/25/23 25/26/24 22/27/25
f 16/18/16 21/23/21 22/27/25 14/19/17
f 31/28/26 24/29/27 23/25/23 20/24/22
f 23/25/23 24/29/27 26/30/28 25/26/24
f 24/29/27 29/31/29 27/32/30 26/30/28
f 28/33/31 27/32/30 29/31/29 30/34/32
f 30/35/32 29/31/29 24/29/27 31/28/26
f 32/36/33 33/8/6 4/7/5 11/15/13
f 33/8/6 32/36/33 2/3/3 5/2/2
v -0.429992 1.408039 -0.177525
v -0.422992 1.408016 -0.175426
v -0.430181 1.407766 -0.151411
v -0.430069 1.429800 -0.177415
v -0.438262 1.406966 -0.176734
v -0.441917 1.435518 -0.176622
v -0.439053 1.406668 -0.148152
v -0.464856 1.416270 -0.178703
v -0.464434 1.416060 -0.160891
v -0.461109 1.434126 -0.178591
v -0.519792 1.415530 -0.171619
v -0.517978 1.415415 -0.158801
v -0.519778 1.430448 -0.171508
v -0.548329 1.415260 -0.167064
v -0.549608 1.428528 -0.166952
v -0.547995 1.415122 -0.153862
v -0.574019 1.415900 -0.164199
v -0.573653 1.415816 -0.151255
v -0.574625 1.427003 -0.164087
v -0.647675 1.415716 -0.164100
v -0.647325 1.428386 -0.163988
v -0.647787 1.415679 -0.153121
v -0.669028 1.417331 -0.164938
v -0.668116 1.417285 -0.152752
v -0.668309 1.430124 -0.164825
v -0.674811 1.417185 -0.164638
v -0.674235 1.433556 -0.164513
v -0.673690 1.417122 -0.151515
v -0.685681 1.418466 -0.165594
v -0.678172 1.419187 -0.150570
v -0.685681 1.433282 -0.165594
v -0.688302 1.424172 -0.158125
v -0.686937 1.423273 -0.151619
v -0.688878 1.429003 -0.158125
v -0.686909 1.429909 -0.151619
v -0.678028 1.434889 -0.150570
v -0.673114 1.433470 -0.151515
v -0.667398 1.430039 -0.152752
v -0.647427 1.428318 -0.153121
v -0.517975 1.430376 -0.158802
v -0.460684 1.433881 -0.160891
v -0.442696 1.435203 -0.148152
v -0.429654 1.430880 -0.153376
v -0.438314 1.429404 -0.145808
v -0.436547 1.414745 -0.145948
v -0.431765 1.428388 -0.148343
v -0.432464 1.415252 -0.147447
v -0.422484 1.429888 -0.155597
v -0.423599 1.407121 -0.156808
v -0.415725 1.423930 -0.160000
v -0.414430 1.423491 -0.164383
v -0.416232 1.416151 -0.158991
v -0.413228 1.416222 -0.164168
v -0.421863 1.429787 -0.175313
vt 0.357800 0.328700
vt 0.359500 0.324900
vt 0.365900 0.325200
vt 0.366800 0.327700
vt 0.374200 0.315700
vt 0.379600 0.318900
vt 0.368600 0.331300
vt 0.383000 0.324300
vt 0.354100 0.334800
vt 0.354700 0.347900
vt 0.369600 0.350200
vt 0.386500 0.348000
vt 0.372600 0.401500
vt 0.384600 0.401100
vt 0.358500 0.401600
vt 0.373000 0.428700
vt 0.385100 0.429800
vt 0.360300 0.430100
vt 0.362300 0.454800
vt 0.373200 0.453900
vt 0.385900 0.453900
vt 0.376300 0.523900
vt 0.386100 0.524000
vt 0.365000 0.524700
vt 0.368300 0.541600
vt 0.376000 0.540200
vt 0.385300 0.542100
vt 0.375900 0.543200
vt 0.384200 0.546800
vt 0.369200 0.545300
vt 0.372400 0.548000
vt 0.374600 0.546700
vt 0.383500 0.551400
vt 0.375200 0.549800
vt 0.374500 0.548600
vt 0.373500 0.549000
vt 0.373600 0.550700
vt 0.365700 0.557900
vt 0.398600 0.551300
vt 0.398300 0.556500
vt 0.397100 0.544400
vt 0.398100 0.524500
vt 0.404100 0.343000
vt 0.398600 0.401100
vt 0.402600 0.320400
vt 0.338100 0.346400
vt 0.335000 0.323700
vt 0.396000 0.318500
vt 0.392900 0.314400
vt 0.394000 0.308800
vt 0.347200 0.316000
vt 0.386700 0.321000
vt 0.385600 0.318600
vt 0.389700 0.304100
vt 0.364300 0.318200
vt 0.360700 0.318900
vt 0.353300 0.313800
vt 0.363800 0.320800
vt 0.361200 0.321000
vn 0.2100 0.3577 -0.9099
vn 0.5191 -0.0010 -0.8547
vn 0.4717 -0.6634 -0.5809
vn 0.0926 -0.6419 -0.7612
vn 0.4278 -0.7747 0.4657
vn 0.4246 -0.6939 0.5816
vn -0.0857 -0.7613 -0.6427
vn -0.1645 -0.7322 0.6609
vn 0.1323 0.7660 -0.6290
vn -0.0331 0.4278 -0.9032
vn -0.1222 -0.6210 -0.7743
vn -0.2931 -0.7053 0.6455
vn -0.0922 -0.6969 -0.7112
vn 0.0253 -0.9064 0.4216
vn -0.1388 0.0114 -0.9903
vn -0.0994 -0.7124 -0.6947
vn -0.0106 -0.9999 -0.0090
vn -0.1329 0.0007 -0.9911
vn -0.0557 0.0050 -0.9984
vn -0.0502 -0.7123 -0.7001
vn -0.0122 -0.9999 -0.0064
vn -0.0138 -0.7161 -0.6979
vn -0.0261 -0.9030 0.4288
vn 0.0197 0.0083 -0.9998
vn -0.0108 0.0090 -0.9999
vn -0.0198 -0.6803 -0.7327
vn 0.0643 -0.7222 0.6886
vn -0.0623 -0.7469 -0.6620
vn 0.0556 -0.7436 0.6663
vn 0.0326 0.0057 -0.9995
vn -0.5819 0.3315 -0.7426
vn -0.5121 -0.6168 -0.5978
vn -0.1644 -0.5899 0.7905
vn -0.6452 -0.3815 0.6620
vn -0.9334 -0.3580 0.0231
vn -0.9407 0.3391 0.0049
vn -0.6559 0.3776 0.6536
vn -0.1613 0.3128 0.9360
vn 0.2015 -0.0063 0.9795
vn 0.1291 -0.0057 0.9916
vn 0.0182 -0.0008 0.9998
vn -0.2742 0.5837 0.7643
vn 0.0378 -0.0043 0.9993
vn -0.1081 0.7286 0.6763
vn 0.0042 0.2660 0.9640
vn 0.6388 0.2862 0.7141
vn 0.6343 0.5581 0.5350
vn -0.0347 -0.1435 0.9890
vn 0.6290 -0.1013 0.7708
vn 0.4640 -0.0123 0.8858
vn 0.7494 -0.2891 0.5957
vn 0.6812 0.0178 0.7319
vn 0.9554 -0.2787 -0.0980
vn 0.9812 0.0385 -0.1890
usemtl Skeleton
s 1
f 37/37/34 87/38/35 35/39/36 34/40/37
f 34/40/37 35/39/36 82/41/38 36/42/39
f 38/43/40 34/40/37 36/42/39 40/44/41
f 39/45/42 37/37/34 34/40/37 38/43/40
f 43/46/43 39/45/42 38/43/40 41/47/44
f 41/47/44 38/43/40 40/44/41 42/48/45
f 44/49/46 41/47/44 42/48/45 45/50/47
f 46/51/48 43/46/43 41/47/44 44/49/46
f 47/52/49 44/49/46 45/50/47 49/53/50
f 48/54/51 46/51/48 44/49/46 47/52/49
f 52/55/52 48/54/51 47/52/49 50/56/53
f 50/56/53 47/52/49 49/53/50 51/57/54
f 53/58/55 50/56/53 51/57/54 55/59/56
f 54/60/57 52/55/52 50/56/53 53/58/55
f 58/61/58 54/60/57 53/58/55 56/62/59
f 56/62/59 53/58/55 55/59/56 57/63/60
f 59/64/61 56/62/59 57/63/60 61/65/62
f 60/66/63 58/61/58 56/62/59 59/64/61
f 64/67/64 60/66/63 59/64/61 62/68/65
f 62/68/65 59/64/61 61/65/62 63/69/66
f 63/69/66 66/70/67 65/71/68 62/68/65
f 62/68/65 65/71/68 67/72/69 64/67/64
f 68/73/70 67/72/69 65/71/68 66/70/67
f 64/67/64 67/72/69 68/73/70 69/74/71
f 69/74/71 68/73/70 66/70/67 63/69/66
f 63/69/66 61/65/62 70/75/72 69/76/71
f 61/65/62 57/63/60 71/77/73 70/75/72
f 57/63/60 55/59/56 72/78/74 71/77/73
f 45/50/47 42/48/45 74/79/75 73/80/76
f 42/48/45 40/44/41 75/81/77 74/79/75
f 74/82/75 75/83/77 39/45/42 43/46/43
f 75/81/77 77/84/78 79/85/79 76/86/80
f 75/83/77 76/87/80 37/37/34 39/45/42
f 40/44/41 78/88/81 77/84/78 75/81/77
f 78/88/81 80/89/82 79/85/79 77/84/78
f 76/86/80 79/85/79 80/89/82 36/42/39
f 36/42/39 80/89/82 78/88/81 40/44/41
f 81/90/83 76/86/80 36/42/39 82/41/38
f 82/41/38 85/91/84 83/92/85 81/93/83
f 85/91/84 86/94/86 84/95/87 83/92/85
f 35/39/36 86/94/86 85/91/84 82/41/38
f 87/38/35 84/95/87 86/94/86 35/39/36
