# Blender v2.92.0 OBJ File: 'untitled.blend'
# www.blender.org
mtllib rightarm.mtl
v -0.406330 1.448384 -0.153367
v -0.409924 1.446375 -0.151998
v -0.399143 1.452396 -0.156391
v -0.404877 1.416843 -0.154148
v -0.397707 1.417138 -0.156582
v -0.403423 1.385302 -0.154929
v -0.409133 1.422432 -0.152292
v -0.416987 1.422419 -0.150087
v -0.408343 1.398489 -0.152585
v -0.408050 1.398423 -0.132140
v -0.416373 1.403817 -0.150315
v -0.416145 1.403766 -0.134431
v -0.425959 1.406329 -0.149245
v -0.426490 1.422413 -0.149048
v -0.425762 1.406285 -0.135511
v -0.426425 1.422335 -0.135774
v -0.427021 1.438496 -0.148851
v -0.427088 1.438385 -0.136037
v -0.417601 1.441020 -0.149859
v -0.404009 1.385252 -0.130477
v -0.396566 1.381862 -0.132625
v -0.386021 1.393679 -0.141976
v -0.396272 1.381880 -0.156774
v -0.385539 1.393692 -0.154156
v -0.386590 1.421262 -0.154163
v -0.371238 1.409933 -0.155680
v -0.344143 1.417877 -0.154338
v -0.370839 1.409924 -0.140948
v -0.372079 1.424974 -0.155690
v -0.372920 1.440015 -0.155701
v -0.345195 1.428856 -0.154361
v -0.294284 1.430999 -0.146312
v -0.346246 1.439834 -0.154385
v -0.295336 1.444937 -0.146351
v -0.240218 1.446457 -0.142643
v -0.239590 1.432429 -0.142597
v -0.219152 1.455579 -0.142692
v -0.219533 1.435945 -0.142634
v -0.208703 1.459859 -0.150278
v -0.194822 1.465056 -0.158095
v -0.208943 1.435996 -0.150201
v -0.197397 1.435567 -0.156456
v -0.209183 1.412132 -0.150124
v -0.208263 1.407466 -0.111611
v -0.219914 1.416311 -0.142576
v -0.199972 1.406078 -0.154817
v -0.201040 1.401219 -0.110329
v -0.188607 1.412487 -0.150577
v -0.188678 1.409229 -0.117862
v -0.188560 1.434790 -0.150658
v -0.182100 1.419392 -0.141685
v -0.182274 1.432401 -0.141733
v -0.181892 1.417773 -0.122833
v -0.182048 1.431048 -0.122875
v -0.182205 1.444323 -0.122917
v -0.188595 1.432603 -0.117929
v -0.188513 1.455977 -0.117996
v -0.188513 1.457093 -0.150740
v -0.182447 1.445411 -0.141781
v -0.219933 1.413080 -0.116322
v -0.238961 1.418402 -0.142551
v -0.238969 1.415448 -0.120037
v -0.293233 1.417060 -0.146274
v -0.293233 1.415365 -0.128313
v -0.344143 1.417789 -0.136521
v -0.387641 1.448832 -0.154171
vt 0.140600 0.225500
vt 0.152800 0.221000
vt 0.155900 0.222600
vt 0.137800 0.228600
vt 0.157800 0.227700
vt 0.138500 0.233300
vt 0.117200 0.235100
vt 0.116400 0.230100
vt 0.125800 0.226200
vt 0.131400 0.221600
vt 0.140100 0.222000
vt 0.123300 0.210100
vt 0.112900 0.209900
vt 0.130000 0.213000
vt 0.135200 0.218600
vt 0.139600 0.218300
vt 0.134200 0.215100
vt 0.144000 0.217200
vt 0.139000 0.214200
vt 0.143200 0.214300
vt 0.147500 0.218900
vt 0.103300 0.236200
vt 0.107800 0.238400
vt 0.122000 0.242200
vt 0.114700 0.246700
vt 0.142300 0.240500
vt 0.134200 0.254700
vt 0.123200 0.263000
vt 0.147500 0.251000
vt 0.157400 0.272900
vt 0.148500 0.277000
vt 0.135400 0.285800
vt 0.159700 0.246800
vt 0.166100 0.269100
vt 0.159500 0.234200
vt 0.175800 0.313000
vt 0.165300 0.318500
vt 0.185900 0.307500
vt 0.210500 0.353200
vt 0.197300 0.359300
vt 0.226100 0.371300
vt 0.207700 0.376800
vt 0.231100 0.382300
vt 0.212000 0.387300
vt 0.237300 0.393900
vt 0.215700 0.396900
vt 0.194200 0.397500
vt 0.196200 0.407100
vt 0.189000 0.385200
vt 0.161700 0.388500
vt 0.158800 0.400500
vt 0.158800 0.408200
vt 0.201100 0.437100
vt 0.205400 0.410200
vt 0.208200 0.428300
vt 0.217700 0.404400
vt 0.211600 0.414000
vt 0.213300 0.423600
vt 0.218400 0.411600
vt 0.220500 0.422400
vt 0.222500 0.427400
vt 0.227800 0.420400
vt 0.226000 0.409500
vt 0.236700 0.422300
vt 0.232200 0.401300
vt 0.162700 0.370200
vt 0.184400 0.364800
vt 0.152800 0.325500
vn -0.3478 0.0025 -0.9376
vn -0.3790 0.0026 -0.9254
vn -0.3637 -0.0002 -0.9315
vn -0.3646 0.0006 -0.9312
vn -0.0679 0.0050 -0.9977
vn -0.0572 0.0058 -0.9983
vn 0.1231 -0.7572 -0.6415
vn -0.6722 -0.4979 -0.5480
vn -0.7019 -0.3102 -0.6412
vn -0.4257 -0.5919 -0.6844
vn -0.1623 0.0067 -0.9867
vn -0.8169 -0.5767 -0.0017
vn -0.7619 -0.6476 -0.0086
vn -0.4251 -0.9051 0.0032
vn -0.2477 -0.6327 -0.7337
vn -0.5207 -0.0085 -0.8537
vn -0.2534 -0.9674 0.0005
vn -0.7034 -0.0171 -0.7106
vn -0.9993 -0.0371 -0.0003
vn -0.1087 0.0086 -0.9940
vn -0.0062 -1.0000 -0.0003
vn 0.6156 -0.4682 -0.6339
vn 0.7432 -0.6690 0.0095
vn 0.0526 0.0031 -0.9986
vn 0.2951 -0.5302 -0.7949
vn 0.5131 -0.8583 -0.0027
vn -0.0274 -0.0014 -0.9996
vn 0.1025 0.0065 -0.9947
vn 0.1665 -0.6343 -0.7549
vn 0.1154 -0.9929 -0.0306
vn -0.0417 -0.0021 -0.9991
vn 0.1008 0.0063 -0.9949
vn 0.0967 0.0054 -0.9953
vn 0.1118 0.0059 -0.9937
vn 0.0731 -0.6906 -0.7195
vn 0.0298 -0.0012 -0.9996
vn 0.0332 -0.0010 -0.9994
vn -0.3838 0.0026 -0.9234
vn -0.3059 0.0014 -0.9521
vn -0.5248 0.0007 -0.8512
vn -0.5296 0.0013 -0.8482
vn 0.0090 -0.0323 -0.9994
vn 0.0418 -0.0341 -0.9985
vn -0.6353 -0.4719 -0.6114
vn -0.0415 -0.7083 -0.7047
vn -0.3967 -0.6531 -0.6451
vn -0.2876 -0.9509 -0.1146
vn -0.5346 -0.8395 -0.0973
vn -0.1615 -0.9812 -0.1053
vn 0.6986 -0.4657 -0.5432
vn 0.6828 -0.7222 0.1110
vn 0.6948 -0.0277 -0.7186
vn 0.9313 -0.2608 -0.2542
vn 0.8988 -0.2608 0.3524
vn 0.9514 0.0070 -0.3078
vn 0.8975 0.0090 0.4409
vn 0.6043 0.0036 0.7967
vn 0.9088 0.1708 0.3808
vn 0.9537 0.1868 -0.2357
vn 0.8853 0.3544 0.3011
vn 0.7986 0.0870 -0.5955
vn -0.0461 -0.9916 -0.1205
vn -0.0033 -0.6548 -0.7558
vn 0.0034 -0.9964 -0.0852
usemtl Skeleton
s 1
f 7/1/1 2/2/2 1/3/3 4/4/4
f 3/5/5 5/6/6 4/4/4 1/3/3
f 5/6/6 23/7/7 6/8/8 4/4/4
f 9/9/9 7/1/1 4/4/4 6/8/8
f 7/1/1 9/9/9 11/10/10 8/11/11
f 10/12/12 9/9/9 6/8/8 20/13/13
f 11/10/10 9/9/9 10/12/12 12/14/14
f 8/11/11 11/10/10 13/15/15 14/16/16
f 13/15/15 11/10/10 12/14/14 15/17/17
f 17/18/18 14/16/16 16/19/19 18/20/19
f 19/21/20 8/11/11 14/16/16 17/18/18
f 20/22/13 6/8/8 23/7/7 21/23/21
f 21/23/21 23/7/7 24/24/22 22/25/23
f 23/7/7 5/6/6 25/26/24 24/24/22
f 22/25/23 24/24/22 26/27/25 28/28/26
f 24/24/22 25/26/24 29/29/27 26/27/25
f 26/27/25 29/29/27 31/30/28 27/31/29
f 28/28/26 26/27/25 27/31/29 65/32/30
f 29/29/27 30/33/31 33/34/32 31/30/28
f 25/26/24 66/35/33 30/33/31 29/29/27
f 27/31/29 31/30/28 32/36/34 63/37/35
f 31/30/28 33/34/32 34/38/34 32/36/34
f 32/36/34 34/38/34 35/39/36 36/40/37
f 36/40/37 35/39/36 37/41/38 38/42/39
f 38/42/39 37/41/38 39/43/40 41/44/41
f 41/44/41 39/43/40 40/45/42 42/46/43
f 43/47/44 41/44/41 42/46/43 46/48/45
f 45/49/46 38/42/39 41/44/41 43/47/44
f 60/50/47 45/49/46 43/47/44 44/51/48
f 44/51/48 43/47/44 46/48/45 47/52/49
f 47/53/49 46/48/45 48/54/50 49/55/51
f 46/48/45 42/46/43 50/56/52 48/54/50
f 49/55/51 48/54/50 51/57/53 53/58/54
f 48/54/50 50/56/52 52/59/55 51/57/53
f 54/60/56 53/58/54 51/57/53 52/59/55
f 53/58/54 54/60/56 56/61/57 49/55/51
f 55/62/58 54/60/56 52/59/55 59/63/59
f 54/60/56 55/62/58 57/64/60 56/61/57
f 55/62/58 59/63/59 58/65/61 57/64/60
f 42/46/43 40/45/42 58/65/61 50/56/52
f 50/56/52 58/65/61 59/63/59 52/59/55
f 62/66/62 61/67/63 45/49/46 60/50/47
f 61/67/63 36/40/37 38/42/39 45/49/46
f 64/68/64 63/37/35 61/67/63 62/66/62
f 63/37/35 32/36/34 36/40/37 61/67/63
f 65/32/30 27/31/29 63/37/35 64/68/64
f 5/6/6 3/5/5 66/35/33 25/26/24
